<svg width="104" height="16" viewBox="0 0 104 16" fill="none" xmlns="http://www.w3.org/2000/svg">
<path d="M7.854 15.168C5.502 15.168 3.759 14.559 2.625 13.341C1.505 12.109 0.945 10.198 0.945 7.608C0.945 2.624 3.283 0.132 7.959 0.132C8.659 0.132 9.373 0.209 10.101 0.362999C10.829 0.502999 11.396 0.691999 11.802 0.93C12.166 1.14 12.348 1.364 12.348 1.602C12.348 1.798 12.271 2.057 12.117 2.379C11.963 2.687 11.774 2.967 11.55 3.219C11.34 3.457 11.151 3.576 10.983 3.576C10.941 3.576 10.773 3.513 10.479 3.387C10.185 3.261 9.828 3.149 9.408 3.051C8.988 2.953 8.484 2.904 7.896 2.904C6.664 2.904 5.747 3.296 5.145 4.08C4.557 4.864 4.263 6.047 4.263 7.629C4.263 10.821 5.46 12.417 7.854 12.417C8.484 12.417 9.03 12.354 9.492 12.228C9.954 12.102 10.402 11.941 10.836 11.745C11.06 11.633 11.214 11.577 11.298 11.577C11.508 11.577 11.704 11.696 11.886 11.934C12.082 12.172 12.236 12.445 12.348 12.753C12.474 13.047 12.537 13.264 12.537 13.404C12.537 13.768 12.292 14.09 11.802 14.37C11.34 14.636 10.731 14.839 9.975 14.979C9.219 15.105 8.512 15.168 7.854 15.168ZM22.3778 15.168C20.2078 15.168 18.5418 14.524 17.3798 13.236C16.2178 11.934 15.6368 10.072 15.6368 7.65C15.6368 5.228 16.2178 3.373 17.3798 2.085C18.5418 0.783 20.2078 0.132 22.3778 0.132C24.5478 0.132 26.2068 0.783 27.3548 2.085C28.5168 3.373 29.0978 5.228 29.0978 7.65C29.0978 10.072 28.5168 11.934 27.3548 13.236C26.2068 14.524 24.5478 15.168 22.3778 15.168ZM22.3778 12.417C23.4978 12.417 24.3448 12.011 24.9188 11.199C25.4928 10.387 25.7798 9.204 25.7798 7.65C25.7798 6.096 25.4928 4.92 24.9188 4.122C24.3448 3.31 23.4978 2.904 22.3778 2.904C21.2578 2.904 20.4038 3.31 19.8158 4.122C19.2418 4.92 18.9548 6.096 18.9548 7.65C18.9548 9.204 19.2418 10.387 19.8158 11.199C20.4038 12.011 21.2578 12.417 22.3778 12.417ZM34.8611 15.042C34.0211 15.042 33.6011 14.818 33.6011 14.37V0.93C33.6011 0.482 34.0211 0.258 34.8611 0.258H35.7641C36.1001 0.258 36.3801 0.299999 36.6041 0.383999C36.8281 0.453999 37.0101 0.600999 37.1501 0.825L41.8751 8.112C42.1551 8.518 42.4071 8.931 42.6311 9.351L42.7151 9.33C42.6872 9.008 42.6732 8.532 42.6732 7.902V0.93C42.6732 0.482 43.0932 0.258 43.9332 0.258H44.5421C45.3821 0.258 45.8021 0.482 45.8021 0.93V14.37C45.8021 14.818 45.3821 15.042 44.5421 15.042H43.7442C43.4081 15.042 43.1281 15.007 42.9041 14.937C42.6801 14.853 42.4981 14.699 42.3581 14.475L37.5281 7.083C37.2481 6.677 36.9961 6.264 36.7721 5.844L36.6881 5.865C36.7161 6.187 36.7301 6.663 36.7301 7.293V14.37C36.7301 14.818 36.3101 15.042 35.4701 15.042H34.8611ZM57.1999 15.168C54.8479 15.168 53.1049 14.559 51.9709 13.341C50.8509 12.109 50.2909 10.198 50.2909 7.608C50.2909 2.624 52.6289 0.132 57.3049 0.132C58.0049 0.132 58.7189 0.209 59.4469 0.362999C60.1749 0.502999 60.7419 0.691999 61.1479 0.93C61.5119 1.14 61.6939 1.364 61.6939 1.602C61.6939 1.798 61.6169 2.057 61.4629 2.379C61.3089 2.687 61.1199 2.967 60.8959 3.219C60.6859 3.457 60.4969 3.576 60.3289 3.576C60.2869 3.576 60.1189 3.513 59.8249 3.387C59.5309 3.261 59.1739 3.149 58.7539 3.051C58.3339 2.953 57.8299 2.904 57.2419 2.904C56.0099 2.904 55.0929 3.296 54.4909 4.08C53.9029 4.864 53.6089 6.047 53.6089 7.629C53.6089 10.821 54.8059 12.417 57.1999 12.417C57.8299 12.417 58.3759 12.354 58.8379 12.228C59.2999 12.102 59.7479 11.941 60.1819 11.745C60.4059 11.633 60.5599 11.577 60.6439 11.577C60.8539 11.577 61.0499 11.696 61.2319 11.934C61.4279 12.172 61.5819 12.445 61.6939 12.753C61.8199 13.047 61.8829 13.264 61.8829 13.404C61.8829 13.768 61.6379 14.09 61.1479 14.37C60.6859 14.636 60.0769 14.839 59.3209 14.979C58.5649 15.105 57.8579 15.168 57.1999 15.168ZM66.9049 15C66.6109 15 66.3939 14.937 66.2539 14.811C66.1279 14.671 66.0649 14.454 66.0649 14.16V1.14C66.0649 0.845999 66.1279 0.635999 66.2539 0.509999C66.3939 0.369999 66.6109 0.299999 66.9049 0.299999H74.2759C74.4999 0.299999 74.6609 0.383999 74.7589 0.552C74.8569 0.719999 74.9059 0.985999 74.9059 1.35V2.001C74.9059 2.365 74.8569 2.631 74.7589 2.799C74.6609 2.967 74.4999 3.051 74.2759 3.051H69.2989V6.096H73.7089C73.9329 6.096 74.0939 6.18 74.1919 6.348C74.2899 6.516 74.3389 6.782 74.3389 7.146V7.797C74.3389 8.161 74.2899 8.427 74.1919 8.595C74.0939 8.763 73.9329 8.847 73.7089 8.847H69.2989V12.249H74.2969C74.5209 12.249 74.6819 12.333 74.7799 12.501C74.8779 12.669 74.9269 12.935 74.9269 13.299V13.95C74.9269 14.314 74.8779 14.58 74.7799 14.748C74.6819 14.916 74.5209 15 74.2969 15H66.9049ZM80.7207 15.042C79.8807 15.042 79.4607 14.818 79.4607 14.37V1.14C79.4607 0.845999 79.5237 0.635999 79.6497 0.509999C79.7897 0.369999 80.0067 0.299999 80.3007 0.299999H84.7107C86.0267 0.299999 87.1887 0.621999 88.1967 1.266C89.2047 1.896 89.7087 3.107 89.7087 4.899C89.7087 6.131 89.4147 7.09 88.8267 7.776C88.2387 8.448 87.5807 8.903 86.8527 9.141C86.1247 9.379 85.4807 9.498 84.9207 9.498H82.6947V14.37C82.6947 14.818 82.2747 15.042 81.4347 15.042H80.7207ZM84.5637 6.726C85.0677 6.726 85.4947 6.593 85.8447 6.327C86.2087 6.061 86.3907 5.585 86.3907 4.899C86.3907 4.213 86.2087 3.737 85.8447 3.471C85.4947 3.191 85.0677 3.051 84.5637 3.051H82.6947V6.726H84.5637ZM97.4853 15.042C96.6453 15.042 96.2253 14.818 96.2253 14.37V3.051H92.8863C92.6623 3.051 92.5013 2.967 92.4033 2.799C92.3053 2.631 92.2563 2.365 92.2563 2.001V1.35C92.2563 0.985999 92.3053 0.719999 92.4033 0.552C92.5013 0.383999 92.6623 0.299999 92.8863 0.299999H102.819C103.043 0.299999 103.204 0.383999 103.302 0.552C103.4 0.719999 103.449 0.985999 103.449 1.35V2.001C103.449 2.365 103.4 2.631 103.302 2.799C103.204 2.967 103.043 3.051 102.819 3.051H99.4803V14.37C99.4803 14.818 99.0603 15.042 98.2203 15.042H97.4853Z" fill="#333333"/>
</svg>
