<svg width="311" height="49" viewBox="0 0 311 49" fill="none" xmlns="http://www.w3.org/2000/svg">
<path d="M3.5 38.1C2.53333 38.1 1.85 37.9833 1.45 37.75C1.08333 37.4833 0.933333 37.0667 1 36.5L4.3 4.85C4.36667 4.21666 4.55 3.75 4.85 3.45C5.18333 3.15 5.66667 3 6.3 3H15.95C19.7167 3 22.6 3.81666 24.6 5.45C26.6 7.08333 27.6 9.48333 27.6 12.65C27.6 16.25 26.55 19.1 24.45 21.2C22.35 23.2667 19.3833 24.3 15.55 24.3H8.85L7.55 36.65C7.45 37.6167 6.51667 38.1 4.75 38.1H3.5ZM15.6 18.65C17.2333 18.65 18.5 18.1667 19.4 17.2C20.3 16.2333 20.75 14.95 20.75 13.35C20.75 10.1833 18.8667 8.6 15.1 8.6H10.5L9.45 18.65H15.6ZM38.4156 38.35C36.649 38.35 35.299 37.9 34.3656 37C33.4323 36.1 32.9656 34.6667 32.9656 32.7C32.9656 32.1 32.9823 31.6333 33.0156 31.3L36.0656 1.65C36.1323 1.18333 36.349 0.849997 36.7156 0.649998C37.1156 0.416666 37.7156 0.3 38.5156 0.3H40.1656C41.699 0.3 42.4323 0.716666 42.3656 1.55L39.3156 31.35C39.1823 32.65 39.649 33.3 40.7156 33.3C41.049 33.3 41.3656 33.25 41.6656 33.15C41.9656 33.05 42.1656 33 42.2656 33C42.5323 33 42.6656 33.1833 42.6656 33.55C42.6656 34.2167 42.5656 35.0667 42.3656 36.1C42.199 36.8667 41.7156 37.4333 40.9156 37.8C40.1156 38.1667 39.2823 38.35 38.4156 38.35ZM57.0328 38.4C54.6995 38.4 52.7495 37.5 51.1828 35.7C49.6161 33.8667 48.8328 31.15 48.8328 27.55C48.8328 24.4167 49.3161 21.6333 50.2828 19.2C51.2495 16.7667 52.5995 14.8833 54.3328 13.55C56.0661 12.1833 58.0661 11.5 60.3328 11.5C61.6328 11.5 62.7995 11.7833 63.8328 12.35C64.8995 12.8833 65.7828 13.5 66.4828 14.2C66.7161 13.5 66.8995 13 67.0328 12.7C67.1995 12.4 67.4495 12.1833 67.7828 12.05C68.1495 11.8833 68.6828 11.8 69.3828 11.8H69.8828C70.7495 11.8 71.3495 11.9167 71.6828 12.15C72.0495 12.3833 72.2161 12.7667 72.1828 13.3L70.3828 31.35C70.2495 32.65 70.7161 33.3 71.7828 33.3C72.1161 33.3 72.4328 33.25 72.7328 33.15C73.0661 33.05 73.2828 33 73.3828 33C73.6161 33 73.7328 33.1833 73.7328 33.55C73.7328 34.2167 73.6328 35.0667 73.4328 36.1C73.2995 36.8667 72.8328 37.4333 72.0328 37.8C71.2328 38.1667 70.3828 38.35 69.4828 38.35C66.3495 38.35 64.5828 36.9 64.1828 34C63.3828 35.4 62.3495 36.4833 61.0828 37.25C59.8495 38.0167 58.4995 38.4 57.0328 38.4ZM59.2328 33.15C60.1661 33.15 61.0828 32.75 61.9828 31.95C62.9161 31.15 63.6995 29.9667 64.3328 28.4L65.0328 21.7C65.1661 20.0667 65.3328 18.8833 65.5328 18.15C64.3661 17.1167 62.9828 16.6 61.3828 16.6C59.4495 16.6 57.9495 17.5667 56.8828 19.5C55.8161 21.4 55.2828 23.95 55.2828 27.15C55.2828 31.15 56.5995 33.15 59.2328 33.15ZM99.6289 11.75C101.362 11.75 102.229 12.0667 102.229 12.7C102.229 12.9 102.146 13.2 101.979 13.6L86.4789 47.3C86.1456 48 85.2289 48.35 83.7289 48.35H82.9289C81.2956 48.35 80.4789 48.0333 80.4789 47.4C80.4789 47.1667 80.5789 46.8667 80.7789 46.5L85.2789 37.4L79.4789 14.2C79.4456 14 79.3956 13.7667 79.3289 13.5C79.2622 13.2333 79.2289 13.0333 79.2289 12.9C79.2289 12.1333 80.1456 11.75 81.9789 11.75H83.2789C84.7456 11.75 85.5622 12.0667 85.7289 12.7L88.2789 23.6C88.5122 24.5333 88.7289 25.75 88.9289 27.25L89.1789 28.95H89.3289C90.0622 26.6833 90.7122 24.9 91.2789 23.6L96.1289 12.7C96.4622 12.0667 97.3456 11.75 98.7789 11.75H99.6289ZM127.513 11.75C129.08 11.75 129.863 12.15 129.863 12.95L127.763 33.25C127.23 38.6167 125.946 42.5167 123.913 44.95C121.913 47.3833 119.013 48.6 115.213 48.6C113.546 48.6 112.013 48.4333 110.613 48.1C109.246 47.8 108.163 47.3667 107.363 46.8C106.563 46.2667 106.163 45.6833 106.163 45.05C106.163 42.5167 106.463 41.25 107.063 41.25C107.163 41.25 107.563 41.45 108.263 41.85C108.996 42.2833 109.846 42.6667 110.813 43C111.813 43.3333 112.946 43.5 114.213 43.5C116.313 43.5 117.946 42.7833 119.113 41.35C120.313 39.95 121.03 37.7833 121.263 34.85L121.313 34.2C120.48 35.3667 119.48 36.2667 118.313 36.9C117.146 37.5333 115.896 37.85 114.563 37.85C112.13 37.85 110.08 36.9833 108.413 35.25C106.78 33.4833 105.963 30.8667 105.963 27.4C105.963 24.2667 106.463 21.5 107.463 19.1C108.463 16.7 109.863 14.8333 111.663 13.5C113.463 12.1667 115.546 11.5 117.913 11.5C120.146 11.5 122.213 12.3667 124.113 14.1C124.313 13.4667 124.496 13 124.663 12.7C124.83 12.4 125.08 12.1667 125.413 12C125.78 11.8333 126.313 11.75 127.013 11.75H127.513ZM122.613 21.85C122.78 20.25 122.963 19 123.163 18.1C121.863 17.1 120.53 16.6 119.163 16.6C116.863 16.6 115.163 17.5333 114.063 19.4C112.963 21.2333 112.413 23.7667 112.413 27C112.413 30.7667 113.863 32.65 116.763 32.65C117.696 32.65 118.63 32.2333 119.563 31.4C120.53 30.5667 121.33 29.3667 121.963 27.8L122.613 21.85ZM138.958 38.1C138.091 38.1 137.441 37.9667 137.008 37.7C136.574 37.4 136.391 37.0167 136.458 36.55L138.208 19.9C138.374 18.4667 138.458 17.2167 138.458 16.15C138.458 15.55 138.424 15.0333 138.358 14.6C138.324 14.1667 138.308 13.8667 138.308 13.7C138.341 13.1333 138.724 12.7333 139.458 12.5C140.224 12.2333 141.424 12.1 143.058 12.1C143.658 12.1 144.074 12.4167 144.308 13.05C144.574 13.65 144.708 14.4167 144.708 15.35C146.408 12.7833 148.424 11.5 150.758 11.5C151.591 11.5 152.191 11.7167 152.558 12.15C152.958 12.5833 153.158 13.0833 153.158 13.65C153.158 14.4167 152.941 15.2833 152.508 16.25C152.108 17.1833 151.741 17.65 151.408 17.65C151.274 17.65 150.991 17.5667 150.558 17.4C150.158 17.2333 149.658 17.15 149.058 17.15C148.291 17.15 147.491 17.4 146.658 17.9C145.824 18.3667 145.091 19.0667 144.458 20L142.758 36.6C142.658 37.6 141.724 38.1 139.958 38.1H138.958ZM168.042 38.35C164.508 38.35 161.775 37.3833 159.842 35.45C157.942 33.4833 156.992 30.7167 156.992 27.15C156.992 22.5833 158.025 18.8333 160.092 15.9C162.192 12.9667 165.558 11.5 170.192 11.5C173.692 11.5 176.392 12.4833 178.292 14.45C180.192 16.4167 181.142 19.1833 181.142 22.75C181.142 27.8167 179.992 31.6833 177.692 34.35C175.425 37.0167 172.208 38.35 168.042 38.35ZM168.492 33.3C172.592 33.3 174.642 29.8833 174.642 23.05C174.642 20.95 174.208 19.35 173.342 18.25C172.508 17.1167 171.275 16.55 169.642 16.55C167.575 16.55 166.025 17.4333 164.992 19.2C163.958 20.9333 163.442 23.4833 163.442 26.85C163.442 28.9167 163.875 30.5167 164.742 31.65C165.608 32.75 166.858 33.3 168.492 33.3ZM212.309 33C212.575 33 212.709 33.1833 212.709 33.55C212.709 34.2167 212.609 35.0667 212.409 36.1C212.242 36.8667 211.759 37.4333 210.959 37.8C210.159 38.1667 209.325 38.35 208.459 38.35C206.892 38.35 205.659 38.0167 204.759 37.35C203.859 36.65 203.292 35.5333 203.059 34C202.025 35.3 200.775 36.35 199.309 37.15C197.842 37.95 196.342 38.35 194.809 38.35C192.642 38.35 191.009 37.8667 189.909 36.9C188.809 35.9 188.259 34.35 188.259 32.25C188.259 31.6833 188.275 31.25 188.309 30.95L190.059 13.2C190.159 12.2333 191.092 11.75 192.859 11.75H193.859C194.725 11.75 195.375 11.8833 195.809 12.15C196.242 12.3833 196.425 12.7167 196.359 13.15L194.709 29.65L194.659 30.3C194.659 32.1667 195.675 33.1 197.709 33.1C198.775 33.1 199.809 32.7 200.809 31.9C201.809 31.1 202.625 29.95 203.259 28.45L204.859 13.2C204.959 12.2333 205.892 11.75 207.659 11.75H208.659C209.525 11.75 210.175 11.8833 210.609 12.15C211.042 12.3833 211.242 12.7167 211.209 13.15L209.359 31.35C209.225 32.65 209.692 33.3 210.759 33.3C211.092 33.3 211.409 33.25 211.709 33.15C212.009 33.05 212.209 33 212.309 33ZM243.491 33C243.724 33 243.841 33.1833 243.841 33.55C243.841 34.2167 243.741 35.0667 243.541 36.1C243.407 36.8667 242.941 37.4333 242.141 37.8C241.341 38.1667 240.491 38.35 239.591 38.35C235.957 38.35 234.141 36.5 234.141 32.8C234.141 32.2333 234.157 31.8 234.191 31.5L235.291 20.2C235.491 17.9 234.474 16.75 232.241 16.75C231.174 16.75 230.141 17.1667 229.141 18C228.141 18.8333 227.307 20 226.641 21.5L225.091 36.65C224.991 37.6167 224.057 38.1 222.291 38.1H221.291C220.457 38.1 219.824 37.9667 219.391 37.7C218.957 37.4333 218.757 37.1 218.791 36.7L220.441 20.6C220.674 18.6 220.791 17.1 220.791 16.1C220.791 15.5 220.774 15.0167 220.741 14.65C220.707 14.2833 220.691 13.9667 220.691 13.7C220.691 13.2 221.174 12.8167 222.141 12.55C223.107 12.25 224.224 12.1 225.491 12.1C226.491 12.1 226.991 13.3167 226.991 15.75C227.957 14.4833 229.174 13.4667 230.641 12.7C232.141 11.9 233.657 11.5 235.191 11.5C239.557 11.5 241.741 13.5667 241.741 17.7C241.741 18.2333 241.724 18.6333 241.691 18.9L240.491 31.35C240.357 32.65 240.824 33.3 241.891 33.3C242.224 33.3 242.541 33.25 242.841 33.15C243.174 33.05 243.391 33 243.491 33ZM258.423 38.35C256.789 38.35 255.306 37.9667 253.973 37.2C252.639 36.4333 251.556 35.25 250.723 33.65C249.923 32.0167 249.523 29.9833 249.523 27.55C249.523 24.4167 250.023 21.6333 251.023 19.2C252.023 16.7667 253.423 14.8833 255.223 13.55C257.023 12.1833 259.106 11.5 261.473 11.5C263.739 11.5 265.673 12.2 267.273 13.6L268.573 1.75C268.673 0.816666 269.606 0.349999 271.373 0.349999H272.373C273.239 0.349999 273.889 0.483332 274.323 0.749997C274.756 1.01666 274.939 1.4 274.873 1.9L271.823 31.35C271.689 32.65 272.156 33.3 273.223 33.3C273.556 33.3 273.873 33.25 274.173 33.15C274.506 33.05 274.723 33 274.823 33C275.056 33 275.173 33.1833 275.173 33.55C275.173 34.2167 275.073 35.0667 274.873 36.1C274.739 36.8333 274.273 37.4 273.473 37.8C272.673 38.1667 271.839 38.35 270.973 38.35C269.373 38.35 268.139 38 267.273 37.3C266.406 36.6 265.856 35.5 265.623 34C264.789 35.4 263.739 36.4833 262.473 37.25C261.239 37.9833 259.889 38.35 258.423 38.35ZM260.573 33.15C261.539 33.15 262.489 32.75 263.423 31.95C264.356 31.15 265.139 29.95 265.773 28.35L266.823 18C265.689 17.0667 264.339 16.6 262.773 16.6C260.473 16.6 258.756 17.5333 257.623 19.4C256.523 21.2667 255.973 23.85 255.973 27.15C255.973 29.2167 256.356 30.7333 257.123 31.7C257.889 32.6667 259.039 33.15 260.573 33.15ZM285.394 27.25C284.527 27.25 283.944 27.1333 283.644 26.9C283.377 26.6667 283.277 26.3 283.344 25.8L285.644 4.35C285.744 3.38333 286.661 2.9 288.394 2.9H290.194C292.061 2.9 292.894 3.4 292.694 4.4L288.294 25.8C288.194 26.3333 287.977 26.7167 287.644 26.95C287.344 27.15 286.777 27.25 285.944 27.25H285.394ZM283.894 38.1C282.961 38.1 282.311 37.9833 281.944 37.75C281.577 37.5167 281.394 37.15 281.394 36.65L281.844 32.5C281.911 31.5667 282.827 31.1 284.594 31.1H285.944C286.877 31.1 287.527 31.2167 287.894 31.45C288.294 31.6833 288.494 32.0333 288.494 32.5L288.044 36.65C287.944 37.6167 287.011 38.1 285.244 38.1H283.894ZM303.091 27.25C302.225 27.25 301.641 27.1333 301.341 26.9C301.075 26.6667 300.975 26.3 301.041 25.8L303.341 4.35C303.441 3.38333 304.358 2.9 306.091 2.9H307.891C309.758 2.9 310.591 3.4 310.391 4.4L305.991 25.8C305.891 26.3333 305.675 26.7167 305.341 26.95C305.041 27.15 304.475 27.25 303.641 27.25H303.091ZM301.591 38.1C300.658 38.1 300.008 37.9833 299.641 37.75C299.275 37.5167 299.091 37.15 299.091 36.65L299.541 32.5C299.608 31.5667 300.525 31.1 302.291 31.1H303.641C304.575 31.1 305.225 31.2167 305.591 31.45C305.991 31.6833 306.191 32.0333 306.191 32.5L305.741 36.65C305.641 37.6167 304.708 38.1 302.941 38.1H301.591Z" fill="#1956EB"/>
</svg>
