<svg width="144" height="39" viewBox="0 0 144 39" fill="none" xmlns="http://www.w3.org/2000/svg">
<path d="M2.214 5.617C3.15 4.924 3.951 4.114 4.464 3.385C4.986 4.114 5.85 4.933 6.786 5.617H2.214ZM5.031 8.533H7.551V7.597H5.031V6.562H7.137V5.86C7.461 6.085 7.785 6.283 8.109 6.463C8.307 6.13 8.541 5.788 8.82 5.5C7.398 4.897 5.931 3.718 4.968 2.35H3.861C3.195 3.448 1.746 4.834 0.207 5.608C0.45 5.833 0.747 6.22 0.882 6.472C1.224 6.283 1.557 6.076 1.881 5.851V6.562H3.915V7.597H1.422V8.533H3.915V9.604H0.702V10.567H8.361V9.604H5.031V8.533ZM13.311 6.76H16.434V6.922C16.326 7.012 16.218 7.111 16.101 7.201C15.147 7.255 14.193 7.309 13.311 7.354V6.76ZM16.434 4.15V4.672H13.311V4.15H16.434ZM16.434 5.977H13.311V5.437H16.434V5.977ZM18 5.068C17.856 5.293 17.703 5.518 17.541 5.725V3.232H15.3C15.435 2.998 15.579 2.746 15.705 2.485L14.391 2.359C14.328 2.611 14.22 2.926 14.103 3.232H12.24V7.408C11.745 7.426 11.304 7.444 10.917 7.462L11.061 8.524C12.033 8.461 13.266 8.362 14.562 8.254C13.437 8.893 12.159 9.388 10.791 9.73C10.998 9.973 11.358 10.45 11.511 10.711C13.32 10.171 15.003 9.388 16.434 8.317V9.469C16.434 9.622 16.371 9.676 16.191 9.676C16.011 9.685 15.372 9.694 14.814 9.658C14.967 9.964 15.147 10.468 15.192 10.783C16.056 10.792 16.632 10.765 17.028 10.585C17.424 10.414 17.541 10.09 17.541 9.478V7.381C18.099 6.832 18.603 6.238 19.035 5.572L18 5.068ZM27.54 5.32L26.874 5.599C27.162 6.004 27.351 6.355 27.576 6.85L28.26 6.544C28.089 6.184 27.756 5.644 27.54 5.32ZM28.548 4.906L27.891 5.212C28.179 5.608 28.386 5.941 28.629 6.427L29.304 6.103C29.115 5.752 28.773 5.221 28.548 4.906ZM21.537 3.844L21.654 5.068C22.689 4.843 24.561 4.645 25.335 4.564C24.732 5.014 24.021 6.022 24.021 7.309C24.021 9.244 25.785 10.252 27.657 10.369L28.071 9.136C26.559 9.064 25.191 8.533 25.191 7.066C25.191 6.013 25.992 4.861 27.072 4.573C27.549 4.465 28.314 4.456 28.791 4.456L28.782 3.304C28.152 3.331 27.18 3.385 26.262 3.457C24.633 3.601 23.157 3.736 22.41 3.799C22.239 3.817 21.897 3.835 21.537 3.844ZM33.948 4.249C33.66 3.844 33.03 3.295 32.508 2.935L31.77 3.547C32.301 3.943 32.904 4.528 33.165 4.942L33.948 4.249ZM33.75 5.059C32.958 5.482 32.157 5.914 31.617 6.157L32.148 7.039C32.715 6.724 33.417 6.301 34.038 5.914L33.75 5.059ZM35.055 5.446H36.531V6.058H35.055V5.446ZM36.531 4.681H35.055V4.087H36.531V4.681ZM39.825 8.398V7.471H36.351V6.868H37.575V5.815C38.223 6.175 38.988 6.67 39.375 7.012L40.032 6.211C39.573 5.842 38.637 5.302 37.971 4.978L37.575 5.428V4.312L38.277 4.78C38.736 4.42 39.312 3.889 39.789 3.367L38.871 2.818C38.547 3.241 38.007 3.799 37.575 4.168V3.268H36.207C36.297 3.034 36.405 2.773 36.504 2.503L35.316 2.377C35.28 2.629 35.208 2.971 35.127 3.268H34.065V6.868H35.271V7.471H31.824V8.398H34.389C33.642 9.001 32.598 9.523 31.59 9.802C31.815 10.018 32.139 10.423 32.31 10.702C33.363 10.315 34.461 9.658 35.271 8.857V10.765H36.351V8.884C37.179 9.64 38.286 10.279 39.339 10.63C39.501 10.369 39.825 9.946 40.05 9.73C39.042 9.46 37.98 8.974 37.233 8.398H39.825ZM43.677 2.872C43.758 3.223 43.794 3.655 43.794 4.078C43.794 4.843 43.704 7.183 43.704 8.38C43.704 9.901 44.649 10.54 46.107 10.54C48.141 10.54 49.401 9.352 49.977 8.506L49.167 7.507C48.528 8.479 47.592 9.325 46.116 9.325C45.432 9.325 44.892 9.037 44.892 8.137C44.892 7.03 44.955 5.032 45 4.078C45.009 3.718 45.054 3.268 45.117 2.89L43.677 2.872ZM53.901 7.309C53.901 6.787 54.189 6.436 54.54 6.436C54.792 6.436 54.963 6.643 54.963 6.985C54.963 7.489 54.801 7.921 54.396 7.921C54.135 7.921 53.901 7.696 53.901 7.309ZM58.617 7.219C58.671 7.633 58.68 7.966 58.68 8.317C58.68 8.785 58.491 9.073 58.032 9.217C57.69 9.316 57.114 9.379 56.664 9.379C55.611 9.379 55.512 9.181 55.512 8.803V8.452C55.845 8.056 55.989 7.498 55.989 6.931C55.989 6.58 55.899 6.265 55.728 6.031V4.879C56.232 4.825 56.79 4.744 57.312 4.627V3.547C56.772 3.691 56.241 3.79 55.728 3.862C55.728 3.322 55.764 3.007 55.809 2.746H54.558C54.621 3.007 54.648 3.304 54.648 3.871V3.943H54.387C53.964 3.943 53.442 3.889 52.947 3.817L53.01 4.87C53.595 4.924 54.081 4.951 54.468 4.951H54.648V5.545H54.612C53.64 5.545 52.965 6.337 52.965 7.39C52.965 8.533 53.631 8.992 54.279 8.992C54.324 8.992 54.378 8.992 54.423 8.983V9.172C54.423 9.793 54.513 10.45 56.583 10.45C57.186 10.45 58.122 10.387 58.518 10.261C59.553 9.946 59.787 9.442 59.841 8.641C59.859 8.272 59.85 8.101 59.85 7.597L58.617 7.219ZM58.05 4.312C58.563 4.681 59.4 5.5 59.886 6.094L60.696 5.266C60.291 4.789 59.364 3.916 58.806 3.565L58.05 4.312ZM67.221 5.95C67.185 7.678 67.14 8.299 67.032 8.461C66.969 8.551 66.906 8.578 66.807 8.578C66.699 8.578 66.519 8.578 66.285 8.551C66.42 8.776 66.501 9.145 66.519 9.406C66.825 9.406 67.113 9.406 67.302 9.37C67.527 9.334 67.671 9.253 67.815 9.037C68.022 8.749 68.076 7.858 68.13 5.446V5.077H66.717V4.42H67.923C68.112 4.546 68.391 4.78 68.553 4.933V5.473H69.939C69.84 5.626 69.732 5.788 69.624 5.923H69.318V6.472H68.328V7.318H69.318V8.38C69.318 8.47 69.291 8.497 69.183 8.497C69.084 8.497 68.751 8.497 68.427 8.488C68.544 8.731 68.688 9.109 68.715 9.37C69.228 9.37 69.597 9.352 69.876 9.208C70.164 9.064 70.227 8.812 70.227 8.398V7.318H71.271V6.472H70.227V6.373C70.578 5.986 70.947 5.5 71.217 5.059L70.659 4.636L70.479 4.69H68.823C68.931 4.528 69.03 4.339 69.129 4.15H71.217V3.268H69.498C69.579 3.025 69.651 2.782 69.714 2.53L68.823 2.332C68.688 2.926 68.463 3.52 68.175 3.997V3.538H67.203V2.386H66.213V3.538H65.151V4.42H65.853V5.509C65.853 6.463 65.772 7.795 65.007 8.695C65.196 8.83 65.502 9.127 65.637 9.316C66.483 8.407 66.672 7.048 66.708 5.95H67.221ZM64.989 4.069C64.773 3.619 64.233 3.016 63.774 2.575L62.928 3.106C63.378 3.565 63.891 4.222 64.08 4.663L64.989 4.069ZM64.908 5.869H62.991V6.85H63.909V8.839C63.567 9.145 63.189 9.442 62.865 9.676L63.369 10.693C63.792 10.306 64.134 9.955 64.467 9.595C65.007 10.297 65.754 10.558 66.843 10.603C67.968 10.657 69.966 10.639 71.109 10.576C71.154 10.288 71.316 9.82 71.433 9.577C70.164 9.685 67.95 9.712 66.834 9.658C65.907 9.622 65.25 9.361 64.908 8.749V5.869ZM81.927 3.718C81.792 3.358 81.558 2.791 81.369 2.422L80.721 2.647C80.91 3.016 81.108 3.538 81.252 3.943L81.927 3.718ZM80.928 4.06C80.802 3.691 80.568 3.133 80.406 2.764L79.731 2.971C79.929 3.358 80.109 3.862 80.253 4.285L80.928 4.06ZM78.489 3.619C78.552 3.799 78.615 3.97 78.678 4.141C79.398 7.399 78.417 9.46 76.689 9.46C75.915 9.46 75.276 9.01 75.276 8.02C75.276 6.526 76.509 4.951 77.121 4.474C77.247 4.393 77.436 4.321 77.562 4.276L77.229 3.277C76.644 3.484 75.15 3.727 74.214 3.799C74.043 3.817 73.863 3.826 73.701 3.826L73.863 4.987C74.07 4.933 74.214 4.906 74.385 4.87C74.7 4.807 75.195 4.726 75.537 4.681C74.826 5.491 74.133 6.841 74.133 8.182C74.133 9.712 75.15 10.666 76.635 10.666C78.957 10.666 79.929 8.713 79.848 6.67C80.109 7.111 80.37 7.498 80.649 7.858L81.486 6.976C80.316 5.788 79.812 4.402 79.569 3.286L78.489 3.619ZM85.977 8.38C85.644 8.38 85.284 7.939 85.284 7.039C85.284 6.058 86.067 4.762 87.543 4.456C87.435 5.194 87.273 5.959 87.066 6.616C86.706 7.822 86.346 8.38 85.977 8.38ZM88.425 10.369C90.675 10.027 91.827 8.695 91.827 6.823C91.827 4.879 90.432 3.34 88.227 3.34C85.914 3.34 84.123 5.104 84.123 7.156C84.123 8.659 84.96 9.748 85.941 9.748C86.913 9.748 87.687 8.65 88.218 6.85C88.47 6.013 88.623 5.185 88.749 4.429C89.946 4.636 90.612 5.554 90.612 6.787C90.612 8.083 89.73 8.902 88.587 9.172C88.353 9.226 88.101 9.271 87.759 9.316L88.425 10.369ZM96.084 4.546H102.546V3.52H99.297V2.386H98.181V3.52H95.013V5.788C95.013 7.057 94.95 8.902 94.176 10.171C94.428 10.27 94.896 10.585 95.094 10.765C95.94 9.406 96.084 7.21 96.084 5.788V4.546ZM102.744 10.306C102.42 9.361 101.574 8.002 100.8 6.976L99.801 7.408C100.161 7.912 100.539 8.497 100.854 9.073C99.927 9.127 98.982 9.172 98.127 9.208C98.559 8.074 99.027 6.571 99.378 5.212L98.154 4.969C97.911 6.328 97.425 8.056 96.975 9.262C96.588 9.271 96.237 9.289 95.922 9.298L96.021 10.405C97.416 10.324 99.432 10.18 101.331 10.027C101.466 10.306 101.565 10.567 101.637 10.801L102.744 10.306ZM111.501 3.772H109.179V3.34H111.501V3.772ZM111.501 4.906H109.179V4.474H111.501V4.906ZM112.491 2.602H108.234V5.644H112.491V2.602ZM113.103 6.886V5.986H107.442V6.886H108.459C108.234 7.237 107.955 7.561 107.631 7.84L107.442 7.075L106.722 7.39V5.266H107.568V4.258H106.722V2.485H105.732V4.258H104.832V5.266H105.732V7.804C105.309 7.975 104.931 8.128 104.625 8.245L105.021 9.325C105.57 9.055 106.218 8.731 106.866 8.407C107.091 8.551 107.433 8.866 107.568 9.037C107.937 8.803 108.288 8.497 108.612 8.155H109.152C108.675 8.821 107.982 9.451 107.316 9.784C107.568 9.937 107.847 10.207 108.018 10.414C108.801 9.919 109.638 9.019 110.124 8.155H110.655C110.268 8.992 109.665 9.793 108.981 10.225C109.251 10.369 109.557 10.612 109.737 10.819C110.466 10.252 111.168 9.163 111.537 8.155H111.888C111.789 9.244 111.681 9.703 111.555 9.838C111.483 9.919 111.411 9.937 111.285 9.937C111.168 9.937 110.934 9.937 110.646 9.91C110.781 10.135 110.871 10.495 110.889 10.747C111.249 10.765 111.591 10.756 111.798 10.729C112.023 10.702 112.221 10.63 112.392 10.423C112.635 10.162 112.779 9.442 112.905 7.687C112.914 7.561 112.923 7.318 112.923 7.318H109.269C109.359 7.174 109.449 7.03 109.521 6.886H113.103Z" fill="#1956EB"/>
<path d="M2.07 34.046C1.62533 34.046 1.311 33.9923 1.127 33.885C0.958333 33.7623 0.889333 33.5707 0.92 33.31L2.438 18.751C2.46867 18.4597 2.553 18.245 2.691 18.107C2.84433 17.969 3.06667 17.9 3.358 17.9H7.797C9.52967 17.9 10.856 18.2757 11.776 19.027C12.696 19.7783 13.156 20.8823 13.156 22.339C13.156 23.995 12.673 25.306 11.707 26.272C10.741 27.2227 9.37633 27.698 7.613 27.698H4.531L3.933 33.379C3.887 33.8237 3.45767 34.046 2.645 34.046H2.07ZM7.636 25.099C8.38733 25.099 8.97 24.8767 9.384 24.432C9.798 23.9873 10.005 23.397 10.005 22.661C10.005 21.2043 9.13867 20.476 7.406 20.476H5.29L4.807 25.099H7.636ZM18.1312 34.161C17.3185 34.161 16.6975 33.954 16.2682 33.54C15.8389 33.126 15.6242 32.4667 15.6242 31.562C15.6242 31.286 15.6319 31.0713 15.6472 30.918L17.0502 17.279C17.0809 17.0643 17.1805 16.911 17.3492 16.819C17.5332 16.7117 17.8092 16.658 18.1772 16.658H18.9362C19.6415 16.658 19.9789 16.8497 19.9482 17.233L18.5452 30.941C18.4839 31.539 18.6985 31.838 19.1892 31.838C19.3425 31.838 19.4882 31.815 19.6262 31.769C19.7642 31.723 19.8562 31.7 19.9022 31.7C20.0249 31.7 20.0862 31.7843 20.0862 31.953C20.0862 32.2597 20.0402 32.6507 19.9482 33.126C19.8715 33.4787 19.6492 33.7393 19.2812 33.908C18.9132 34.0767 18.5299 34.161 18.1312 34.161ZM26.6951 34.184C25.6218 34.184 24.7248 33.77 24.0041 32.942C23.2834 32.0987 22.9231 30.849 22.9231 29.193C22.9231 27.7517 23.1454 26.4713 23.5901 25.352C24.0348 24.2327 24.6558 23.3663 25.4531 22.753C26.2504 22.1243 27.1704 21.81 28.2131 21.81C28.8111 21.81 29.3478 21.9403 29.8231 22.201C30.3138 22.4463 30.7201 22.73 31.0421 23.052C31.1494 22.73 31.2338 22.5 31.2951 22.362C31.3718 22.224 31.4868 22.1243 31.6401 22.063C31.8088 21.9863 32.0541 21.948 32.3761 21.948H32.6061C33.0048 21.948 33.2808 22.0017 33.4341 22.109C33.6028 22.2163 33.6794 22.3927 33.6641 22.638L32.8361 30.941C32.7748 31.539 32.9894 31.838 33.4801 31.838C33.6334 31.838 33.7791 31.815 33.9171 31.769C34.0704 31.723 34.1701 31.7 34.2161 31.7C34.3234 31.7 34.3771 31.7843 34.3771 31.953C34.3771 32.2597 34.3311 32.6507 34.2391 33.126C34.1778 33.4787 33.9631 33.7393 33.5951 33.908C33.2271 34.0767 32.8361 34.161 32.4221 34.161C30.9808 34.161 30.1681 33.494 29.9841 32.16C29.6161 32.804 29.1408 33.3023 28.5581 33.655C27.9908 34.0077 27.3698 34.184 26.6951 34.184ZM27.7071 31.769C28.1364 31.769 28.5581 31.585 28.9721 31.217C29.4014 30.849 29.7618 30.3047 30.0531 29.584L30.3751 26.502C30.4364 25.7507 30.5131 25.2063 30.6051 24.869C30.0684 24.3937 29.4321 24.156 28.6961 24.156C27.8068 24.156 27.1168 24.6007 26.6261 25.49C26.1354 26.364 25.8901 27.537 25.8901 29.009C25.8901 30.849 26.4958 31.769 27.7071 31.769ZM46.2893 21.925C47.0866 21.925 47.4853 22.0707 47.4853 22.362C47.4853 22.454 47.447 22.592 47.3703 22.776L40.2403 38.278C40.087 38.6 39.6653 38.761 38.9753 38.761H38.6073C37.856 38.761 37.4803 38.6153 37.4803 38.324C37.4803 38.2167 37.5263 38.0787 37.6183 37.91L39.6883 33.724L37.0203 23.052C37.005 22.96 36.982 22.8527 36.9513 22.73C36.9206 22.6073 36.9053 22.5153 36.9053 22.454C36.9053 22.1013 37.327 21.925 38.1703 21.925H38.7683C39.443 21.925 39.8186 22.0707 39.8953 22.362L41.0683 27.376C41.1756 27.8053 41.2753 28.365 41.3673 29.055L41.4823 29.837H41.5513C41.8886 28.7943 42.1876 27.974 42.4483 27.376L44.6793 22.362C44.8326 22.0707 45.239 21.925 45.8983 21.925H46.2893ZM59.1159 21.925C59.8366 21.925 60.1969 22.109 60.1969 22.477L59.2309 31.815C58.9856 34.2837 58.3953 36.0777 57.4599 37.197C56.5399 38.3163 55.2059 38.876 53.4579 38.876C52.6913 38.876 51.9859 38.7993 51.3419 38.646C50.7133 38.508 50.2149 38.3087 49.8469 38.048C49.4789 37.8027 49.2949 37.5343 49.2949 37.243C49.2949 36.0777 49.4329 35.495 49.7089 35.495C49.7549 35.495 49.9389 35.587 50.2609 35.771C50.5983 35.9703 50.9893 36.1467 51.4339 36.3C51.8939 36.4533 52.4153 36.53 52.9979 36.53C53.9639 36.53 54.7153 36.2003 55.2519 35.541C55.8039 34.897 56.1336 33.9003 56.2409 32.551L56.2639 32.252C55.8806 32.7887 55.4206 33.2027 54.8839 33.494C54.3473 33.7853 53.7723 33.931 53.1589 33.931C52.0396 33.931 51.0966 33.5323 50.3299 32.735C49.5786 31.9223 49.2029 30.7187 49.2029 29.124C49.2029 27.6827 49.4329 26.41 49.8929 25.306C50.3529 24.202 50.9969 23.3433 51.8249 22.73C52.6529 22.1167 53.6113 21.81 54.6999 21.81C55.7273 21.81 56.6779 22.2087 57.5519 23.006C57.6439 22.7147 57.7283 22.5 57.8049 22.362C57.8816 22.224 57.9966 22.1167 58.1499 22.04C58.3186 21.9633 58.5639 21.925 58.8859 21.925H59.1159ZM56.8619 26.571C56.9386 25.835 57.0229 25.26 57.1149 24.846C56.5169 24.386 55.9036 24.156 55.2749 24.156C54.2169 24.156 53.4349 24.5853 52.9289 25.444C52.4229 26.2873 52.1699 27.4527 52.1699 28.94C52.1699 30.6727 52.8369 31.539 54.1709 31.539C54.6003 31.539 55.0296 31.3473 55.4589 30.964C55.9036 30.5807 56.2716 30.0287 56.5629 29.308L56.8619 26.571ZM64.3806 34.046C63.9819 34.046 63.6829 33.9847 63.4836 33.862C63.2843 33.724 63.1999 33.5477 63.2306 33.333L64.0356 25.674C64.1123 25.0147 64.1506 24.4397 64.1506 23.949C64.1506 23.673 64.1353 23.4353 64.1046 23.236C64.0893 23.0367 64.0816 22.8987 64.0816 22.822C64.0969 22.5613 64.2733 22.3773 64.6106 22.27C64.9633 22.1473 65.5153 22.086 66.2666 22.086C66.5426 22.086 66.7343 22.2317 66.8416 22.523C66.9643 22.799 67.0256 23.1517 67.0256 23.581C67.8076 22.4003 68.7353 21.81 69.8086 21.81C70.1919 21.81 70.4679 21.9097 70.6366 22.109C70.8206 22.3083 70.9126 22.5383 70.9126 22.799C70.9126 23.1517 70.8129 23.5503 70.6136 23.995C70.4296 24.4243 70.2609 24.639 70.1076 24.639C70.0463 24.639 69.9159 24.6007 69.7166 24.524C69.5326 24.4473 69.3026 24.409 69.0266 24.409C68.6739 24.409 68.3059 24.524 67.9226 24.754C67.5393 24.9687 67.2019 25.2907 66.9106 25.72L66.1286 33.356C66.0826 33.816 65.6533 34.046 64.8406 34.046H64.3806ZM77.7592 34.161C76.1339 34.161 74.8766 33.7163 73.9872 32.827C73.1132 31.9223 72.6762 30.6497 72.6762 29.009C72.6762 26.9083 73.1516 25.1833 74.1022 23.834C75.0682 22.4847 76.6169 21.81 78.7482 21.81C80.3582 21.81 81.6002 22.2623 82.4742 23.167C83.3482 24.0717 83.7852 25.3443 83.7852 26.985C83.7852 29.3157 83.2562 31.0943 82.1982 32.321C81.1556 33.5477 79.6759 34.161 77.7592 34.161ZM77.9662 31.838C79.8522 31.838 80.7952 30.2663 80.7952 27.123C80.7952 26.157 80.5959 25.421 80.1972 24.915C79.8139 24.3937 79.2466 24.133 78.4952 24.133C77.5446 24.133 76.8316 24.5393 76.3562 25.352C75.8809 26.1493 75.6432 27.3223 75.6432 28.871C75.6432 29.8217 75.8426 30.5577 76.2412 31.079C76.6399 31.585 77.2149 31.838 77.9662 31.838ZM98.122 31.7C98.2446 31.7 98.306 31.7843 98.306 31.953C98.306 32.2597 98.26 32.6507 98.168 33.126C98.0913 33.4787 97.869 33.7393 97.501 33.908C97.133 34.0767 96.7496 34.161 96.351 34.161C95.6303 34.161 95.063 34.0077 94.649 33.701C94.235 33.379 93.9743 32.8653 93.867 32.16C93.3916 32.758 92.8166 33.241 92.142 33.609C91.4673 33.977 90.7773 34.161 90.072 34.161C89.0753 34.161 88.324 33.9387 87.818 33.494C87.312 33.034 87.059 32.321 87.059 31.355C87.059 31.0943 87.0666 30.895 87.082 30.757L87.887 22.592C87.933 22.1473 88.3623 21.925 89.175 21.925H89.635C90.0336 21.925 90.3326 21.9863 90.532 22.109C90.7313 22.2163 90.8156 22.3697 90.785 22.569L90.026 30.159L90.003 30.458C90.003 31.3167 90.4706 31.746 91.406 31.746C91.8966 31.746 92.372 31.562 92.832 31.194C93.292 30.826 93.6676 30.297 93.959 29.607L94.695 22.592C94.741 22.1473 95.1703 21.925 95.983 21.925H96.443C96.8416 21.925 97.1406 21.9863 97.34 22.109C97.5393 22.2163 97.6313 22.3697 97.616 22.569L96.765 30.941C96.7036 31.539 96.9183 31.838 97.409 31.838C97.5623 31.838 97.708 31.815 97.846 31.769C97.984 31.723 98.076 31.7 98.122 31.7ZM112.466 31.7C112.573 31.7 112.627 31.7843 112.627 31.953C112.627 32.2597 112.581 32.6507 112.489 33.126C112.427 33.4787 112.213 33.7393 111.845 33.908C111.477 34.0767 111.086 34.161 110.672 34.161C109 34.161 108.165 33.31 108.165 31.608C108.165 31.3473 108.172 31.148 108.188 31.01L108.694 25.812C108.786 24.754 108.318 24.225 107.291 24.225C106.8 24.225 106.325 24.4167 105.865 24.8C105.405 25.1833 105.021 25.72 104.715 26.41L104.002 33.379C103.956 33.8237 103.526 34.046 102.714 34.046H102.254C101.87 34.046 101.579 33.9847 101.38 33.862C101.18 33.7393 101.088 33.586 101.104 33.402L101.863 25.996C101.97 25.076 102.024 24.386 102.024 23.926C102.024 23.65 102.016 23.4277 102.001 23.259C101.985 23.0903 101.978 22.9447 101.978 22.822C101.978 22.592 102.2 22.4157 102.645 22.293C103.089 22.155 103.603 22.086 104.186 22.086C104.646 22.086 104.876 22.6457 104.876 23.765C105.32 23.1823 105.88 22.7147 106.555 22.362C107.245 21.994 107.942 21.81 108.648 21.81C110.656 21.81 111.661 22.7607 111.661 24.662C111.661 24.9073 111.653 25.0913 111.638 25.214L111.086 30.941C111.024 31.539 111.239 31.838 111.73 31.838C111.883 31.838 112.029 31.815 112.167 31.769C112.32 31.723 112.42 31.7 112.466 31.7ZM119.334 34.161C118.583 34.161 117.901 33.9847 117.287 33.632C116.674 33.2793 116.176 32.735 115.792 31.999C115.424 31.2477 115.24 30.3123 115.24 29.193C115.24 27.7517 115.47 26.4713 115.93 25.352C116.39 24.2327 117.034 23.3663 117.862 22.753C118.69 22.1243 119.649 21.81 120.737 21.81C121.78 21.81 122.669 22.132 123.405 22.776L124.003 17.325C124.049 16.8957 124.479 16.681 125.291 16.681H125.751C126.15 16.681 126.449 16.7423 126.648 16.865C126.848 16.9877 126.932 17.164 126.901 17.394L125.498 30.941C125.437 31.539 125.652 31.838 126.142 31.838C126.296 31.838 126.441 31.815 126.579 31.769C126.733 31.723 126.832 31.7 126.878 31.7C126.986 31.7 127.039 31.7843 127.039 31.953C127.039 32.2597 126.993 32.6507 126.901 33.126C126.84 33.4633 126.625 33.724 126.257 33.908C125.889 34.0767 125.506 34.161 125.107 34.161C124.371 34.161 123.804 34 123.405 33.678C123.007 33.356 122.754 32.85 122.646 32.16C122.263 32.804 121.78 33.3023 121.197 33.655C120.63 33.9923 120.009 34.161 119.334 34.161ZM120.323 31.769C120.768 31.769 121.205 31.585 121.634 31.217C122.064 30.849 122.424 30.297 122.715 29.561L123.198 24.8C122.677 24.3707 122.056 24.156 121.335 24.156C120.277 24.156 119.488 24.5853 118.966 25.444C118.46 26.3027 118.207 27.491 118.207 29.009C118.207 29.9597 118.384 30.6573 118.736 31.102C119.089 31.5467 119.618 31.769 120.323 31.769ZM131.741 29.055C131.343 29.055 131.074 29.0013 130.936 28.894C130.814 28.7867 130.768 28.618 130.798 28.388L131.856 18.521C131.902 18.0763 132.324 17.854 133.121 17.854H133.949C134.808 17.854 135.191 18.084 135.099 18.544L133.075 28.388C133.029 28.6333 132.93 28.8097 132.776 28.917C132.638 29.009 132.378 29.055 131.994 29.055H131.741ZM131.051 34.046C130.622 34.046 130.323 33.9923 130.154 33.885C129.986 33.7777 129.901 33.609 129.901 33.379L130.108 31.47C130.139 31.0407 130.561 30.826 131.373 30.826H131.994C132.424 30.826 132.723 30.8797 132.891 30.987C133.075 31.0943 133.167 31.2553 133.167 31.47L132.96 33.379C132.914 33.8237 132.485 34.046 131.672 34.046H131.051ZM139.882 29.055C139.483 29.055 139.215 29.0013 139.077 28.894C138.954 28.7867 138.908 28.618 138.939 28.388L139.997 18.521C140.043 18.0763 140.465 17.854 141.262 17.854H142.09C142.949 17.854 143.332 18.084 143.24 18.544L141.216 28.388C141.17 28.6333 141.07 28.8097 140.917 28.917C140.779 29.009 140.518 29.055 140.135 29.055H139.882ZM139.192 34.046C138.763 34.046 138.464 33.9923 138.295 33.885C138.126 33.7777 138.042 33.609 138.042 33.379L138.249 31.47C138.28 31.0407 138.701 30.826 139.514 30.826H140.135C140.564 30.826 140.863 30.8797 141.032 30.987C141.216 31.0943 141.308 31.2553 141.308 31.47L141.101 33.379C141.055 33.8237 140.626 34.046 139.813 34.046H139.192Z" fill="#333333"/>
</svg>
