<svg width="213" height="36" viewBox="0 0 213 36" fill="none" xmlns="http://www.w3.org/2000/svg">
<path d="M4.22802 16.858C4.22802 15.892 4.31236 14.9107 4.48102 13.914C4.66502 12.9173 4.97936 12.0127 5.42402 11.2C5.88402 10.3873 6.50502 9.728 7.28702 9.222C8.06902 8.70067 9.06569 8.44 10.277 8.44C11.4884 8.44 12.485 8.70067 13.267 9.222C14.049 9.728 14.6624 10.3873 15.107 11.2C15.567 12.0127 15.8814 12.9173 16.05 13.914C16.234 14.9107 16.326 15.892 16.326 16.858C16.326 17.824 16.234 18.8053 16.05 19.802C15.8814 20.7987 15.567 21.7033 15.107 22.516C14.6624 23.3287 14.049 23.9957 13.267 24.517C12.485 25.023 11.4884 25.276 10.277 25.276C9.06569 25.276 8.06902 25.023 7.28702 24.517C6.50502 23.9957 5.88402 23.3287 5.42402 22.516C4.97936 21.7033 4.66502 20.7987 4.48102 19.802C4.31236 18.8053 4.22802 17.824 4.22802 16.858ZM7.67802 16.858C7.67802 17.2873 7.69336 17.801 7.72402 18.399C7.77002 18.997 7.87736 19.572 8.04603 20.124C8.21469 20.676 8.46769 21.1437 8.80502 21.527C9.15769 21.9103 9.64836 22.102 10.277 22.102C10.8904 22.102 11.3734 21.9103 11.726 21.527C12.0787 21.1437 12.3394 20.676 12.508 20.124C12.6767 19.572 12.7764 18.997 12.807 18.399C12.853 17.801 12.876 17.2873 12.876 16.858C12.876 16.4287 12.853 15.915 12.807 15.317C12.7764 14.719 12.6767 14.144 12.508 13.592C12.3394 13.04 12.0787 12.5723 11.726 12.189C11.3734 11.8057 10.8904 11.614 10.277 11.614C9.64836 11.614 9.15769 11.8057 8.80502 12.189C8.46769 12.5723 8.21469 13.04 8.04603 13.592C7.87736 14.144 7.77002 14.719 7.72402 15.317C7.69336 15.915 7.67802 16.4287 7.67802 16.858ZM26.1654 19.181C25.9814 19.227 25.7974 19.2653 25.6134 19.296C25.4294 19.3267 25.2377 19.342 25.0384 19.342C24.2717 19.342 23.574 19.204 22.9454 18.928C22.3167 18.652 21.78 18.2763 21.3354 17.801C20.8907 17.3257 20.5457 16.766 20.3004 16.122C20.055 15.4627 19.9324 14.765 19.9324 14.029C19.9324 13.1857 20.0857 12.4267 20.3924 11.752C20.7144 11.062 21.1437 10.4717 21.6804 9.981C22.2324 9.49033 22.8764 9.11467 23.6124 8.854C24.3484 8.578 25.1457 8.44 26.0044 8.44C26.8477 8.44 27.6374 8.578 28.3734 8.854C29.1247 9.11467 29.7687 9.49033 30.3054 9.981C30.8574 10.4717 31.2867 11.062 31.5934 11.752C31.9154 12.4267 32.0764 13.1857 32.0764 14.029C32.0764 14.6117 32.0227 15.1483 31.9154 15.639C31.808 16.1143 31.6624 16.5667 31.4784 16.996C31.3097 17.4253 31.1027 17.8393 30.8574 18.238C30.6274 18.6213 30.382 19.02 30.1214 19.434L26.5564 25H22.3474L26.1654 19.181ZM23.3824 14.167C23.3824 14.903 23.62 15.5163 24.0954 16.007C24.586 16.4823 25.2224 16.72 26.0044 16.72C26.7864 16.72 27.415 16.4823 27.8904 16.007C28.381 15.5163 28.6264 14.903 28.6264 14.167C28.6264 13.431 28.381 12.8253 27.8904 12.35C27.415 11.8593 26.7864 11.614 26.0044 11.614C25.2224 11.614 24.586 11.8593 24.0954 12.35C23.62 12.8253 23.3824 13.431 23.3824 14.167ZM36.1197 23.022C36.1197 22.7307 36.1733 22.4547 36.2807 22.194C36.388 21.9333 36.5337 21.711 36.7177 21.527C36.917 21.3277 37.147 21.1743 37.4077 21.067C37.6683 20.9597 37.9443 20.906 38.2357 20.906C38.527 20.906 38.803 20.9597 39.0637 21.067C39.3243 21.1743 39.5467 21.3277 39.7307 21.527C39.93 21.711 40.0833 21.9333 40.1907 22.194C40.298 22.4547 40.3517 22.7307 40.3517 23.022C40.3517 23.3133 40.298 23.5893 40.1907 23.85C40.0833 24.1107 39.93 24.3407 39.7307 24.54C39.5467 24.724 39.3243 24.8697 39.0637 24.977C38.803 25.0843 38.527 25.138 38.2357 25.138C37.9443 25.138 37.6683 25.0843 37.4077 24.977C37.147 24.8697 36.917 24.724 36.7177 24.54C36.5337 24.3407 36.388 24.1107 36.2807 23.85C36.1733 23.5893 36.1197 23.3133 36.1197 23.022ZM44.4663 16.858C44.4663 15.892 44.5507 14.9107 44.7193 13.914C44.9033 12.9173 45.2177 12.0127 45.6623 11.2C46.1223 10.3873 46.7433 9.728 47.5253 9.222C48.3073 8.70067 49.304 8.44 50.5153 8.44C51.7267 8.44 52.7233 8.70067 53.5053 9.222C54.2873 9.728 54.9007 10.3873 55.3453 11.2C55.8053 12.0127 56.1197 12.9173 56.2883 13.914C56.4723 14.9107 56.5643 15.892 56.5643 16.858C56.5643 17.824 56.4723 18.8053 56.2883 19.802C56.1197 20.7987 55.8053 21.7033 55.3453 22.516C54.9007 23.3287 54.2873 23.9957 53.5053 24.517C52.7233 25.023 51.7267 25.276 50.5153 25.276C49.304 25.276 48.3073 25.023 47.5253 24.517C46.7433 23.9957 46.1223 23.3287 45.6623 22.516C45.2177 21.7033 44.9033 20.7987 44.7193 19.802C44.5507 18.8053 44.4663 17.824 44.4663 16.858ZM47.9163 16.858C47.9163 17.2873 47.9317 17.801 47.9623 18.399C48.0083 18.997 48.1157 19.572 48.2843 20.124C48.453 20.676 48.706 21.1437 49.0433 21.527C49.396 21.9103 49.8867 22.102 50.5153 22.102C51.1287 22.102 51.6117 21.9103 51.9643 21.527C52.317 21.1437 52.5777 20.676 52.7463 20.124C52.915 19.572 53.0147 18.997 53.0453 18.399C53.0913 17.801 53.1143 17.2873 53.1143 16.858C53.1143 16.4287 53.0913 15.915 53.0453 15.317C53.0147 14.719 52.915 14.144 52.7463 13.592C52.5777 13.04 52.317 12.5723 51.9643 12.189C51.6117 11.8057 51.1287 11.614 50.5153 11.614C49.8867 11.614 49.396 11.8057 49.0433 12.189C48.706 12.5723 48.453 13.04 48.2843 13.592C48.1157 14.144 48.0083 14.719 47.9623 15.317C47.9317 15.915 47.9163 16.4287 47.9163 16.858ZM71.2797 11.752H64.8167L64.7477 14.259C65.1003 14.1363 65.5833 14.075 66.1967 14.075C67.0247 14.075 67.7837 14.1977 68.4737 14.443C69.1637 14.6883 69.754 15.0487 70.2447 15.524C70.7507 15.984 71.1417 16.5513 71.4177 17.226C71.6937 17.8853 71.8317 18.629 71.8317 19.457C71.8317 20.377 71.6707 21.1973 71.3487 21.918C71.042 22.6387 70.6127 23.252 70.0607 23.758C69.5087 24.2487 68.8493 24.6243 68.0827 24.885C67.3313 25.1457 66.511 25.276 65.6217 25.276C64.211 25.276 63.0303 24.931 62.0797 24.241C61.129 23.551 60.4773 22.5083 60.1247 21.113L63.7357 20.285C63.8277 20.8677 64.073 21.343 64.4717 21.711C64.8703 22.0637 65.3687 22.24 65.9667 22.24C66.7027 22.24 67.2853 22.01 67.7147 21.55C68.1593 21.09 68.3817 20.5073 68.3817 19.802C68.3817 19.2653 68.2667 18.8283 68.0367 18.491C67.822 18.1383 67.5307 17.8623 67.1627 17.663C66.81 17.4483 66.4113 17.3027 65.9667 17.226C65.522 17.1493 65.0773 17.111 64.6327 17.111C64.0653 17.111 63.4903 17.1647 62.9077 17.272C62.3403 17.3793 61.7883 17.525 61.2517 17.709L61.4357 8.716H71.2797V11.752Z" fill="#333333"/>
<path d="M83.743 11.44L83.726 11.508C83.046 12.46 82.5133 13.5083 82.128 14.653C81.7427 15.7863 81.55 16.9367 81.55 18.104C81.55 19.2827 81.7427 20.4443 82.128 21.589C82.5133 22.7223 83.046 23.765 83.726 24.717L82.298 25.652C81.516 24.5753 80.904 23.3967 80.462 22.116C80.0313 20.8353 79.816 19.498 79.816 18.104C79.816 16.7213 80.0313 15.3897 80.462 14.109C80.904 12.817 81.516 11.6327 82.298 10.556L83.743 11.44ZM89.3683 12.902H85.6793V10.964H95.1993V12.902H91.5103V23H89.3683V12.902ZM100.048 15.979H100.082C100.241 15.639 100.518 15.333 100.915 15.061C101.323 14.7777 101.844 14.636 102.479 14.636C103.023 14.636 103.482 14.7267 103.856 14.908C104.241 15.0893 104.553 15.3273 104.791 15.622C105.029 15.9167 105.199 16.2567 105.301 16.642C105.403 17.0273 105.454 17.4297 105.454 17.849V23H103.414V18.869C103.414 18.6423 103.403 18.393 103.38 18.121C103.357 17.8377 103.295 17.577 103.193 17.339C103.102 17.0897 102.955 16.8857 102.751 16.727C102.547 16.557 102.269 16.472 101.918 16.472C101.578 16.472 101.289 16.5287 101.051 16.642C100.824 16.7553 100.632 16.9083 100.473 17.101C100.326 17.2937 100.218 17.5147 100.15 17.764C100.082 18.0133 100.048 18.274 100.048 18.546V23H98.008V10.148H100.048V15.979ZM116.746 23H114.808V21.691H114.774C114.581 22.099 114.286 22.456 113.89 22.762C113.493 23.0567 112.955 23.204 112.275 23.204C111.731 23.204 111.266 23.119 110.881 22.949C110.507 22.7677 110.201 22.5297 109.963 22.235C109.725 21.929 109.555 21.5833 109.453 21.198C109.351 20.8127 109.3 20.4103 109.3 19.991V14.84H111.34V18.971C111.34 19.1977 111.351 19.4527 111.374 19.736C111.396 20.008 111.453 20.2687 111.544 20.518C111.646 20.756 111.793 20.96 111.986 21.13C112.19 21.2887 112.473 21.368 112.836 21.368C113.176 21.368 113.459 21.3113 113.686 21.198C113.924 21.0847 114.116 20.9317 114.264 20.739C114.422 20.5463 114.536 20.3253 114.604 20.076C114.672 19.8267 114.706 19.566 114.706 19.294V14.84H116.746V23ZM119.724 24.768L119.741 24.7C120.421 23.748 120.954 22.7053 121.339 21.572C121.725 20.4273 121.917 19.2713 121.917 18.104C121.917 16.9253 121.725 15.7693 121.339 14.636C120.954 13.5027 120.421 12.46 119.741 11.508L121.169 10.556C121.951 11.6327 122.558 12.8113 122.988 14.092C123.43 15.3727 123.651 16.71 123.651 18.104C123.651 19.4867 123.43 20.824 122.988 22.116C122.558 23.3967 121.951 24.5753 121.169 25.652L119.724 24.768Z" fill="#333333"/>
<path d="M135.36 12.6L132.7 15.06L131.3 13.4L135.58 9.84H137.76V24H135.36V12.6ZM153.736 12H148.036L147.976 14.82C148.163 14.7533 148.396 14.7067 148.676 14.68C148.969 14.6533 149.243 14.64 149.496 14.64C150.189 14.64 150.823 14.7533 151.396 14.98C151.983 15.1933 152.483 15.5067 152.896 15.92C153.309 16.3333 153.629 16.8267 153.856 17.4C154.096 17.9733 154.216 18.62 154.216 19.34C154.216 20.1 154.083 20.7867 153.816 21.4C153.563 22 153.203 22.5133 152.736 22.94C152.283 23.3533 151.743 23.6733 151.116 23.9C150.489 24.1267 149.816 24.24 149.096 24.24C147.963 24.24 146.996 23.9733 146.196 23.44C145.409 22.9067 144.849 22.0933 144.516 21L147.036 20.32C147.196 20.8267 147.469 21.2267 147.856 21.52C148.243 21.8133 148.743 21.96 149.356 21.96C149.716 21.96 150.043 21.9 150.336 21.78C150.643 21.66 150.903 21.4933 151.116 21.28C151.343 21.0533 151.516 20.7933 151.636 20.5C151.756 20.2067 151.816 19.8867 151.816 19.54C151.816 19.0467 151.723 18.6267 151.536 18.28C151.363 17.9333 151.123 17.6533 150.816 17.44C150.509 17.2133 150.156 17.0533 149.756 16.96C149.356 16.8533 148.936 16.8 148.496 16.8C147.976 16.8 147.456 16.86 146.936 16.98C146.429 17.1 145.963 17.2667 145.536 17.48L145.676 9.84H153.736V12ZM158.632 22.6C158.632 22.1733 158.785 21.8067 159.092 21.5C159.412 21.1933 159.792 21.04 160.232 21.04C160.659 21.04 161.032 21.1867 161.352 21.48C161.672 21.7733 161.832 22.1333 161.832 22.56C161.832 22.9867 161.672 23.3533 161.352 23.66C161.045 23.9667 160.672 24.12 160.232 24.12C160.019 24.12 159.812 24.08 159.612 24C159.425 23.92 159.259 23.8133 159.112 23.68C158.965 23.5467 158.845 23.3867 158.752 23.2C158.672 23.0133 158.632 22.8133 158.632 22.6ZM158.632 15.82C158.632 15.3933 158.785 15.0267 159.092 14.72C159.412 14.4133 159.792 14.26 160.232 14.26C160.659 14.26 161.032 14.4067 161.352 14.7C161.672 14.9933 161.832 15.3533 161.832 15.78C161.832 16.2067 161.672 16.5733 161.352 16.88C161.045 17.1867 160.672 17.34 160.232 17.34C160.019 17.34 159.812 17.3 159.612 17.22C159.425 17.14 159.259 17.0333 159.112 16.9C158.965 16.7667 158.845 16.6067 158.752 16.42C158.672 16.2333 158.632 16.0333 158.632 15.82ZM165.79 16.92C165.79 15.8 165.877 14.8467 166.05 14.06C166.237 13.26 166.477 12.5933 166.77 12.06C167.063 11.5133 167.39 11.08 167.75 10.76C168.123 10.4267 168.497 10.18 168.87 10.02C169.257 9.84667 169.623 9.73333 169.97 9.68C170.33 9.62667 170.643 9.6 170.91 9.6C171.177 9.6 171.483 9.62667 171.83 9.68C172.19 9.73333 172.557 9.84667 172.93 10.02C173.317 10.18 173.69 10.4267 174.05 10.76C174.423 11.08 174.757 11.5133 175.05 12.06C175.343 12.5933 175.577 13.26 175.75 14.06C175.937 14.8467 176.03 15.8 176.03 16.92C176.03 18.04 175.937 19 175.75 19.8C175.577 20.5867 175.343 21.2533 175.05 21.8C174.757 22.3333 174.423 22.7667 174.05 23.1C173.69 23.42 173.317 23.6667 172.93 23.84C172.557 24 172.19 24.1067 171.83 24.16C171.483 24.2133 171.177 24.24 170.91 24.24C170.643 24.24 170.33 24.2133 169.97 24.16C169.623 24.1067 169.257 24 168.87 23.84C168.497 23.6667 168.123 23.42 167.75 23.1C167.39 22.7667 167.063 22.3333 166.77 21.8C166.477 21.2533 166.237 20.5867 166.05 19.8C165.877 19 165.79 18.04 165.79 16.92ZM168.19 16.92C168.19 17.36 168.217 17.8733 168.27 18.46C168.337 19.0333 168.463 19.58 168.65 20.1C168.837 20.62 169.11 21.06 169.47 21.42C169.83 21.78 170.31 21.96 170.91 21.96C171.51 21.96 171.99 21.78 172.35 21.42C172.71 21.06 172.983 20.62 173.17 20.1C173.357 19.58 173.477 19.0333 173.53 18.46C173.597 17.8733 173.63 17.36 173.63 16.92C173.63 16.48 173.597 15.9733 173.53 15.4C173.477 14.8133 173.357 14.26 173.17 13.74C172.983 13.22 172.71 12.78 172.35 12.42C171.99 12.06 171.51 11.88 170.91 11.88C170.31 11.88 169.83 12.06 169.47 12.42C169.11 12.78 168.837 13.22 168.65 13.74C168.463 14.26 168.337 14.8133 168.27 15.4C168.217 15.9733 168.19 16.48 168.19 16.92ZM179.426 16.92C179.426 15.8 179.512 14.8467 179.686 14.06C179.872 13.26 180.112 12.5933 180.406 12.06C180.699 11.5133 181.026 11.08 181.386 10.76C181.759 10.4267 182.132 10.18 182.506 10.02C182.892 9.84667 183.259 9.73333 183.606 9.68C183.966 9.62667 184.279 9.6 184.546 9.6C184.812 9.6 185.119 9.62667 185.466 9.68C185.826 9.73333 186.192 9.84667 186.566 10.02C186.952 10.18 187.326 10.4267 187.686 10.76C188.059 11.08 188.392 11.5133 188.686 12.06C188.979 12.5933 189.212 13.26 189.386 14.06C189.572 14.8467 189.666 15.8 189.666 16.92C189.666 18.04 189.572 19 189.386 19.8C189.212 20.5867 188.979 21.2533 188.686 21.8C188.392 22.3333 188.059 22.7667 187.686 23.1C187.326 23.42 186.952 23.6667 186.566 23.84C186.192 24 185.826 24.1067 185.466 24.16C185.119 24.2133 184.812 24.24 184.546 24.24C184.279 24.24 183.966 24.2133 183.606 24.16C183.259 24.1067 182.892 24 182.506 23.84C182.132 23.6667 181.759 23.42 181.386 23.1C181.026 22.7667 180.699 22.3333 180.406 21.8C180.112 21.2533 179.872 20.5867 179.686 19.8C179.512 19 179.426 18.04 179.426 16.92ZM181.826 16.92C181.826 17.36 181.852 17.8733 181.906 18.46C181.972 19.0333 182.099 19.58 182.286 20.1C182.472 20.62 182.746 21.06 183.106 21.42C183.466 21.78 183.946 21.96 184.546 21.96C185.146 21.96 185.626 21.78 185.986 21.42C186.346 21.06 186.619 20.62 186.806 20.1C186.992 19.58 187.112 19.0333 187.166 18.46C187.232 17.8733 187.266 17.36 187.266 16.92C187.266 16.48 187.232 15.9733 187.166 15.4C187.112 14.8133 186.992 14.26 186.806 13.74C186.619 13.22 186.346 12.78 185.986 12.42C185.626 12.06 185.146 11.88 184.546 11.88C183.946 11.88 183.466 12.06 183.106 12.42C182.746 12.78 182.472 13.22 182.286 13.74C182.099 14.26 181.972 14.8133 181.906 15.4C181.852 15.9733 181.826 16.48 181.826 16.92ZM203.562 17.98C203.415 18.1933 203.255 18.4067 203.082 18.62C202.922 18.82 202.742 19 202.542 19.16C202.355 19.32 202.135 19.4533 201.882 19.56C201.642 19.6533 201.368 19.7 201.062 19.7C200.688 19.7 200.335 19.64 200.002 19.52C199.682 19.3867 199.355 19.2267 199.022 19.04C198.702 18.8533 198.355 18.6933 197.982 18.56C197.608 18.4133 197.188 18.34 196.722 18.34C196.495 18.34 196.288 18.3867 196.102 18.48C195.928 18.56 195.768 18.6667 195.622 18.8C195.488 18.92 195.368 19.06 195.262 19.22C195.168 19.38 195.082 19.54 195.002 19.7L194.282 18.02C194.388 17.8067 194.515 17.6 194.662 17.4C194.808 17.1867 194.982 17 195.182 16.84C195.382 16.68 195.608 16.5533 195.862 16.46C196.115 16.3533 196.402 16.3 196.722 16.3C197.108 16.3 197.495 16.3667 197.882 16.5C198.268 16.62 198.655 16.7667 199.042 16.94C199.415 17.1 199.775 17.26 200.122 17.42C200.482 17.58 200.795 17.66 201.062 17.66C201.262 17.66 201.448 17.62 201.622 17.54C201.795 17.4467 201.948 17.34 202.082 17.22C202.228 17.0867 202.362 16.94 202.482 16.78C202.602 16.62 202.722 16.46 202.842 16.3L203.562 17.98Z" fill="#333333"/>
</svg>
