<svg width="24" height="18" viewBox="0 0 24 18" fill="none" xmlns="http://www.w3.org/2000/svg">
<path d="M0 1.42105C0 0.636227 0.619913 0 1.38462 0H22.6154C23.3801 0 24 0.636227 24 1.42105C24 2.20588 23.3801 2.84211 22.6154 2.84211H1.38461C0.619913 2.84211 0 2.20588 0 1.42105Z" fill="#333333"/>
<path d="M0 9C0 8.21517 0.619913 7.57895 1.38462 7.57895H22.6154C23.3801 7.57895 24 8.21517 24 9C24 9.78483 23.3801 10.4211 22.6154 10.4211H1.38461C0.619913 10.4211 0 9.78483 0 9Z" fill="#333333"/>
<path d="M0 16.5789C0 15.7941 0.619913 15.1579 1.38462 15.1579H22.6154C23.3801 15.1579 24 15.7941 24 16.5789C24 17.3638 23.3801 18 22.6154 18H1.38461C0.619913 18 0 17.3638 0 16.5789Z" fill="#333333"/>
</svg>
