<?xml version="1.0" encoding="UTF-8"?>
<svg width="8px" height="16px" viewBox="0 0 8 16" version="1.1" xmlns="http://www.w3.org/2000/svg" xmlns:xlink="http://www.w3.org/1999/xlink">
    <!-- Generator: Sketch 54.1 (76490) - https://sketchapp.com -->
    <title>Group 8</title>
    <desc>Created with Sketch.</desc>
    <g id="Chapter_4" stroke="none" stroke-width="1" fill="none" fill-rule="evenodd">
        <g id="グッドイメージ" transform="translate(-18.000000, -224.000000)" fill-rule="nonzero">
            <g id="Group-3" transform="translate(7.000000, 162.000000)">
                <g id="Group-2" transform="translate(9.000000, 12.000000)">
                    <g id="detail" transform="translate(0.000000, 50.000000)">
                        <g id="場所" transform="translate(2.000000, 0.000000)">
                            <g id="Group-8" transform="translate(0.156000, 0.808000)">
                                <path d="M3.148,13.272 L3.008,13.272 C2.808,13.744 2.488,14.124 2.024,14.432 C1.976,14.46 1.952,14.476 1.928,14.476 C1.9,14.476 1.876,14.452 1.828,14.4 C1.772,14.336 1.712,14.284 1.652,14.248 C2.144,13.984 2.452,13.664 2.636,13.272 L2.42,13.272 C2.172,13.656 1.856,13.952 1.488,14.16 C1.44,14.188 1.412,14.204 1.388,14.204 C1.356,14.204 1.336,14.18 1.288,14.128 C1.24,14.072 1.184,14.028 1.12,13.988 C1.496,13.812 1.796,13.568 2.012,13.272 L1.76,13.272 C1.612,13.456 1.428,13.62 1.232,13.744 C1.18,13.776 1.156,13.796 1.132,13.796 C1.108,13.796 1.088,13.772 1.048,13.724 C0.992,13.656 0.924,13.6 0.856,13.556 C1.172,13.384 1.42,13.164 1.596,12.9 C1.632,12.848 1.656,12.792 1.68,12.732 C1.352,12.732 1.228,12.74 1.208,12.74 C1.168,12.74 1.164,12.736 1.164,12.692 L1.164,12.432 C1.164,12.392 1.168,12.388 1.208,12.388 C1.232,12.388 1.364,12.396 1.752,12.396 L3.092,12.396 C3.48,12.396 3.616,12.388 3.636,12.388 C3.676,12.388 3.68,12.392 3.68,12.432 L3.68,12.692 C3.68,12.736 3.676,12.74 3.636,12.74 C3.616,12.74 3.48,12.732 3.092,12.732 L1.892,12.732 L2.024,12.764 C2.06,12.776 2.08,12.8 2.08,12.816 C2.08,12.844 2.068,12.856 2.048,12.868 C2.028,12.884 2.008,12.896 1.984,12.94 L3.028,12.94 C3.368,12.94 3.484,12.932 3.508,12.932 C3.552,12.932 3.564,12.94 3.56,12.984 L3.532,13.388 C3.512,13.732 3.476,13.976 3.408,14.156 C3.328,14.368 3.2,14.464 2.956,14.464 C2.88,14.464 2.824,14.464 2.752,14.456 C2.66,14.448 2.66,14.448 2.628,14.324 C2.6,14.224 2.564,14.136 2.524,14.06 C2.672,14.084 2.796,14.084 2.888,14.084 C2.976,14.084 3.008,14.072 3.044,13.96 C3.076,13.856 3.116,13.676 3.148,13.272 Z M2.028,10.984 L2.78,10.984 C3.124,10.984 3.236,10.976 3.264,10.976 C3.304,10.976 3.308,10.98 3.308,11.02 C3.308,11.044 3.3,11.14 3.3,11.36 L3.3,11.844 C3.3,12.072 3.308,12.164 3.308,12.188 C3.308,12.228 3.304,12.232 3.264,12.232 C3.236,12.232 3.124,12.224 2.78,12.224 L2.028,12.224 C1.68,12.224 1.568,12.232 1.54,12.232 C1.5,12.232 1.496,12.228 1.496,12.188 C1.496,12.16 1.504,12.072 1.504,11.844 L1.504,11.36 C1.504,11.14 1.496,11.044 1.496,11.02 C1.496,10.98 1.5,10.976 1.54,10.976 C1.568,10.976 1.68,10.984 2.028,10.984 Z M2.92,11.936 L2.92,11.74 L1.872,11.74 L1.872,11.936 L2.92,11.936 Z M2.92,11.284 L1.872,11.284 L1.872,11.476 L2.92,11.476 L2.92,11.284 Z M0.88,12.228 L0.88,13.056 C0.988,13.004 1.1,12.952 1.212,12.892 C1.208,12.96 1.208,13.052 1.208,13.14 C1.212,13.272 1.212,13.264 1.104,13.324 C0.872,13.452 0.624,13.572 0.368,13.668 C0.3,13.692 0.256,13.712 0.24,13.724 C0.216,13.744 0.192,13.76 0.168,13.76 C0.144,13.76 0.128,13.748 0.108,13.708 C0.068,13.612 0.036,13.496 5.10702591e-14,13.352 C0.132,13.328 0.252,13.3 0.396,13.252 C0.424,13.24 0.456,13.232 0.488,13.22 L0.488,12.228 L0.456,12.228 C0.192,12.228 0.112,12.236 0.088,12.236 C0.052,12.236 0.048,12.232 0.048,12.192 L0.048,11.888 C0.048,11.848 0.052,11.844 0.088,11.844 C0.112,11.844 0.192,11.852 0.456,11.852 L0.488,11.852 L0.488,11.508 C0.488,11.224 0.484,11.1 0.456,10.904 C0.612,10.908 0.732,10.916 0.864,10.928 C0.904,10.932 0.928,10.952 0.928,10.972 C0.928,11 0.916,11.024 0.904,11.052 C0.884,11.104 0.88,11.204 0.88,11.496 L0.88,11.852 C1.096,11.852 1.172,11.844 1.196,11.844 C1.236,11.844 1.24,11.848 1.24,11.888 L1.24,12.192 C1.24,12.232 1.236,12.236 1.196,12.236 C1.172,12.236 1.096,12.228 0.88,12.228 Z M6.82,12.512 L6.364,12.512 C6.356,12.968 6.32,13.272 6.224,13.572 C6.124,13.884 5.96,14.148 5.732,14.384 C5.692,14.428 5.672,14.448 5.648,14.448 C5.628,14.448 5.608,14.428 5.568,14.38 C5.496,14.296 5.408,14.22 5.316,14.164 C5.572,13.952 5.756,13.684 5.852,13.368 C5.92,13.14 5.964,12.88 5.964,12.332 L5.964,11.844 C5.964,11.604 5.956,11.408 5.936,11.192 C6.076,11.216 6.196,11.244 6.316,11.288 C6.56,11.232 6.868,11.124 7.092,11.004 C7.184,10.96 7.236,10.92 7.304,10.864 C7.396,10.94 7.492,11.044 7.568,11.148 C7.592,11.176 7.6,11.196 7.6,11.228 C7.6,11.252 7.572,11.268 7.536,11.272 C7.492,11.276 7.452,11.292 7.384,11.32 C7.044,11.46 6.7,11.576 6.364,11.652 L6.364,12.144 L7.096,12.144 C7.488,12.144 7.62,12.136 7.644,12.136 C7.684,12.136 7.688,12.14 7.688,12.18 L7.688,12.476 C7.688,12.516 7.684,12.52 7.644,12.52 C7.62,12.52 7.508,12.516 7.216,12.512 L7.216,13.964 C7.216,14.284 7.224,14.44 7.224,14.464 C7.224,14.5 7.22,14.504 7.184,14.504 L6.856,14.504 C6.82,14.504 6.816,14.5 6.816,14.464 C6.816,14.436 6.82,14.284 6.82,13.964 L6.82,12.512 Z M5.284,13.06 L4.684,13.06 C4.656,13.592 4.572,14 4.376,14.38 C4.348,14.432 4.332,14.46 4.308,14.46 C4.288,14.46 4.264,14.436 4.228,14.396 C4.148,14.304 4.052,14.228 3.968,14.184 C4.256,13.768 4.296,13.212 4.296,12.488 C4.296,12.052 4.288,11.844 4.288,11.82 C4.288,11.78 4.292,11.776 4.332,11.776 C4.36,11.776 4.448,11.784 4.736,11.784 L5.236,11.784 C5.52,11.784 5.616,11.776 5.636,11.776 C5.676,11.776 5.68,11.78 5.68,11.82 C5.68,11.844 5.672,11.952 5.672,12.192 L5.672,12.804 C5.672,13.048 5.68,13.144 5.68,13.168 C5.68,13.212 5.676,13.216 5.636,13.216 L5.328,13.216 C5.288,13.216 5.284,13.212 5.284,13.168 L5.284,13.06 Z M5.284,12.14 L4.696,12.14 L4.696,12.704 L5.284,12.704 L5.284,12.14 Z M4.612,11.052 L5.284,11.052 C5.616,11.052 5.724,11.044 5.748,11.044 C5.788,11.044 5.792,11.048 5.792,11.088 L5.792,11.38 C5.792,11.424 5.788,11.428 5.748,11.428 C5.724,11.428 5.616,11.42 5.284,11.42 L4.612,11.42 C4.284,11.42 4.172,11.428 4.148,11.428 C4.108,11.428 4.104,11.424 4.104,11.38 L4.104,11.088 C4.104,11.048 4.108,11.044 4.148,11.044 C4.172,11.044 4.284,11.052 4.612,11.052 Z" id="場所" fill="#333333"></path>
                                <path d="M0.352,9 L7.336,9 L7.336,9.984 L0.352,9.984 L0.352,9 Z M2.836,3 C2.836,3.27200136 2.935999,3.50399904 3.136,3.696 C3.336001,3.88800096 3.57399862,3.984 3.85,3.984 C4.12600138,3.984 4.36199902,3.88800096 4.558,3.696 C4.75400098,3.50399904 4.852,3.27200136 4.852,3 C4.852,2.72799864 4.752001,2.492001 4.552,2.292 C4.351999,2.091999 4.11600136,1.992 3.844,1.992 C3.57199864,1.992 3.336001,2.091999 3.136,2.292 C2.935999,2.492001 2.836,2.72799864 2.836,3 Z M6.844,3 C6.844,3.41600208 6.74000104,3.89199732 6.532,4.428 C6.35599912,4.88400228 6.1080016,5.37599736 5.788,5.904 C5.53199872,6.32000208 5.23600168,6.75199776 4.9,7.2 C4.6599988,7.5200016 4.41200128,7.82799852 4.156,8.124 L3.844,8.484 L3.532,8.124 C3.27599872,7.82799852 3.0280012,7.5200016 2.788,7.2 C2.45199832,6.75199776 2.15600128,6.32000208 1.9,5.904 C1.5799984,5.37599736 1.33200088,4.88400228 1.156,4.428 C0.94799896,3.89199732 0.844,3.41600208 0.844,3 C0.844,2.45599728 0.97799866,1.9540023 1.246,1.494 C1.51400134,1.0339977 1.8779977,0.67000134 2.338,0.402 C2.7980023,0.13399866 3.29999728,1.89182003e-13 3.844,1.89182003e-13 C4.38800272,1.89182003e-13 4.8899977,0.13399866 5.35,0.402 C5.8100023,0.67000134 6.17399866,1.0339977 6.442,1.494 C6.71000134,1.9540023 6.844,2.45599728 6.844,3 Z" id="" fill="#000000"></path>
                            </g>
                        </g>
                    </g>
                </g>
            </g>
        </g>
    </g>
</svg>