<?xml version="1.0" encoding="UTF-8"?>
<svg width="10px" height="15px" viewBox="0 0 10 15" version="1.1" xmlns="http://www.w3.org/2000/svg" xmlns:xlink="http://www.w3.org/1999/xlink">
    <!-- Generator: Sketch 54.1 (76490) - https://sketchapp.com -->
    <title>時間</title>
    <desc>Created with Sketch.</desc>
    <g id="Chapter_4" stroke="none" stroke-width="1" fill="none" fill-rule="evenodd">
        <g id="グッドイメージ" transform="translate(-17.000000, -270.000000)">
            <g id="Group-3" transform="translate(1.000000, 162.000000)">
                <g id="Group-2" transform="translate(14.000000, 12.000000)">
                    <g id="detail" transform="translate(0.000000, 50.000000)">
                        <g id="時間" transform="translate(1.000000, 45.000000)">
                            <path d="M3.444,12.72 L3.444,13.636 C3.444,14.632 3.452,14.812 3.452,14.836 C3.452,14.876 3.448,14.88 3.408,14.88 L3.12,14.88 C3.084,14.88 3.08,14.876 3.08,14.836 L3.08,14.66 L2.712,14.66 L2.712,14.976 C2.712,15.016 2.708,15.02 2.672,15.02 L2.376,15.02 C2.336,15.02 2.332,15.016 2.332,14.976 C2.332,14.952 2.34,14.748 2.34,13.744 L2.34,12.872 C2.34,12.148 2.332,11.936 2.332,11.912 C2.332,11.872 2.336,11.868 2.376,11.868 C2.404,11.868 2.48,11.876 2.72,11.876 L3.064,11.876 C3.304,11.876 3.38,11.868 3.408,11.868 C3.448,11.868 3.452,11.872 3.452,11.912 C3.452,11.936 3.444,12.132 3.444,12.72 Z M2.712,14.296 L3.08,14.296 L3.08,13.432 L2.712,13.432 L2.712,14.296 Z M3.08,12.24 L2.712,12.24 L2.712,13.068 L3.08,13.068 L3.08,12.24 Z M5.26,13.232 L4.144,13.232 C3.764,13.232 3.632,13.24 3.608,13.24 C3.564,13.24 3.56,13.236 3.56,13.192 L3.56,12.916 C3.56,12.876 3.564,12.872 3.608,12.872 C3.632,12.872 3.764,12.88 4.144,12.88 L4.432,12.88 L4.432,12.468 L4.244,12.468 C3.888,12.468 3.764,12.476 3.74,12.476 C3.696,12.476 3.692,12.472 3.692,12.432 L3.692,12.152 C3.692,12.108 3.696,12.104 3.74,12.104 C3.764,12.104 3.888,12.112 4.244,12.112 L4.432,12.112 C4.428,11.904 4.424,11.8 4.404,11.66 C4.56,11.664 4.668,11.672 4.816,11.688 C4.856,11.692 4.88,11.708 4.88,11.728 C4.88,11.76 4.868,11.78 4.856,11.812 C4.836,11.856 4.836,11.932 4.836,12.112 L5.104,12.112 C5.468,12.112 5.588,12.104 5.612,12.104 C5.652,12.104 5.656,12.108 5.656,12.152 L5.656,12.432 C5.656,12.472 5.652,12.476 5.612,12.476 C5.588,12.476 5.468,12.468 5.104,12.468 L4.836,12.468 L4.836,12.88 L5.26,12.88 C5.64,12.88 5.772,12.872 5.796,12.872 C5.84,12.872 5.844,12.876 5.844,12.916 L5.844,13.192 C5.844,13.236 5.84,13.24 5.796,13.24 C5.772,13.24 5.64,13.232 5.26,13.232 Z M4.948,13.984 L4.16,13.984 C3.78,13.984 3.652,13.992 3.628,13.992 C3.584,13.992 3.58,13.988 3.58,13.948 L3.58,13.668 C3.58,13.628 3.584,13.624 3.628,13.624 C3.652,13.624 3.78,13.632 4.16,13.632 L4.948,13.632 C4.944,13.468 4.932,13.372 4.92,13.28 C5.072,13.288 5.216,13.3 5.324,13.316 C5.368,13.324 5.392,13.34 5.392,13.36 C5.392,13.388 5.384,13.404 5.372,13.428 C5.356,13.46 5.352,13.508 5.352,13.632 C5.624,13.632 5.732,13.624 5.752,13.624 C5.796,13.624 5.8,13.628 5.8,13.668 L5.8,13.948 C5.8,13.988 5.796,13.992 5.752,13.992 C5.732,13.992 5.624,13.988 5.352,13.984 L5.352,14.38 C5.352,14.564 5.356,14.736 5.356,14.872 C5.356,15.02 5.328,15.132 5.216,15.212 C5.128,15.272 4.996,15.3 4.696,15.3 C4.576,15.3 4.572,15.3 4.544,15.18 C4.516,15.06 4.476,14.968 4.424,14.888 C4.564,14.9 4.684,14.904 4.816,14.904 C4.912,14.904 4.948,14.872 4.948,14.78 L4.948,13.984 Z M3.868,14.236 L4.092,14.096 C4.132,14.072 4.144,14.072 4.176,14.1 C4.312,14.24 4.432,14.392 4.544,14.56 C4.568,14.596 4.564,14.608 4.524,14.636 L4.28,14.804 C4.256,14.82 4.244,14.828 4.232,14.828 C4.22,14.828 4.212,14.82 4.2,14.8 C4.08,14.596 3.964,14.444 3.848,14.308 C3.82,14.276 3.82,14.264 3.868,14.236 Z M9.668,12.344 L9.668,13.988 C9.668,14.268 9.684,14.588 9.684,14.784 C9.684,14.976 9.656,15.072 9.568,15.152 C9.484,15.228 9.372,15.26 8.996,15.26 C8.876,15.26 8.876,15.264 8.852,15.136 C8.828,15.024 8.796,14.924 8.756,14.844 C8.88,14.86 9.008,14.864 9.092,14.864 C9.224,14.864 9.256,14.828 9.256,14.708 L9.256,13.112 L8.6,13.112 C8.288,13.112 8.184,13.12 8.16,13.12 C8.12,13.12 8.116,13.116 8.116,13.072 C8.116,13.048 8.124,12.956 8.124,12.72 L8.124,12.168 C8.124,11.936 8.116,11.84 8.116,11.816 C8.116,11.772 8.12,11.768 8.16,11.768 C8.184,11.768 8.288,11.776 8.6,11.776 L9.188,11.776 C9.5,11.776 9.608,11.768 9.632,11.768 C9.672,11.768 9.676,11.772 9.676,11.816 C9.676,11.84 9.668,12.004 9.668,12.344 Z M8.516,12.824 L9.256,12.824 L9.256,12.584 L8.516,12.584 L8.516,12.824 Z M9.256,12.076 L8.516,12.076 L8.516,12.312 L9.256,12.312 L9.256,12.076 Z M6.844,11.776 L7.396,11.776 C7.656,11.776 7.776,11.768 7.8,11.768 C7.836,11.768 7.84,11.772 7.84,11.816 C7.84,11.84 7.832,11.956 7.832,12.196 L7.832,12.692 C7.832,12.936 7.84,13.048 7.84,13.072 C7.84,13.116 7.836,13.12 7.8,13.12 C7.776,13.12 7.656,13.112 7.396,13.112 L6.748,13.112 L6.748,14.408 C6.748,14.96 6.756,15.232 6.756,15.26 C6.756,15.3 6.752,15.304 6.712,15.304 L6.372,15.304 C6.332,15.304 6.328,15.3 6.328,15.26 C6.328,15.232 6.336,14.96 6.336,14.408 L6.336,12.676 C6.336,12.12 6.328,11.84 6.328,11.816 C6.328,11.772 6.332,11.768 6.372,11.768 C6.4,11.768 6.552,11.776 6.844,11.776 Z M7.44,12.824 L7.44,12.584 L6.748,12.584 L6.748,12.824 L7.44,12.824 Z M7.44,12.076 L6.748,12.076 L6.748,12.312 L7.44,12.312 L7.44,12.076 Z M7.572,15.028 L7.288,15.028 C7.248,15.028 7.244,15.024 7.244,14.98 C7.244,14.956 7.252,14.848 7.252,14.256 L7.252,13.904 C7.252,13.552 7.244,13.432 7.244,13.404 C7.244,13.364 7.248,13.36 7.288,13.36 C7.316,13.36 7.412,13.368 7.716,13.368 L8.256,13.368 C8.56,13.368 8.656,13.36 8.684,13.36 C8.724,13.36 8.728,13.364 8.728,13.404 C8.728,13.428 8.72,13.548 8.72,13.836 L8.72,14.232 C8.72,14.812 8.728,14.92 8.728,14.94 C8.728,14.98 8.724,14.984 8.684,14.984 L8.396,14.984 C8.356,14.984 8.352,14.98 8.352,14.94 L8.352,14.816 L7.62,14.816 L7.62,14.98 C7.62,15.024 7.616,15.028 7.572,15.028 Z M7.62,14.512 L8.352,14.512 L8.352,14.232 L7.62,14.232 L7.62,14.512 Z M7.62,13.676 L7.62,13.944 L8.352,13.944 L8.352,13.676 L7.62,13.676 Z" fill="#333333" fill-rule="nonzero"></path>
                            <g id="baseline-schedule-24px">
                                <path d="M5.995,1 C3.235,1 1,3.24 1,6 C1,8.76 3.235,11 5.995,11 C8.76,11 11,8.76 11,6 C11,3.24 8.76,1 5.995,1 Z M6,10 C3.79,10 2,8.21 2,6 C2,3.79 3.79,2 6,2 C8.21,2 10,3.79 10,6 C10,8.21 8.21,10 6,10 Z" id="Shape" fill="#000000" fill-rule="nonzero"></path>
                                <polygon id="Path" points="0 0 12 0 12 12 0 12"></polygon>
                                <polygon id="Path" fill="#000000" fill-rule="nonzero" points="6.25 3.5 5.5 3.5 5.5 6.5 8.125 8.075 8.5 7.46 6.25 6.125"></polygon>
                            </g>
                        </g>
                    </g>
                </g>
            </g>
        </g>
    </g>
</svg>