<?xml version="1.0" encoding="UTF-8"?>
<svg width="8px" height="15px" viewBox="0 0 8 15" version="1.1" xmlns="http://www.w3.org/2000/svg" xmlns:xlink="http://www.w3.org/1999/xlink">
    <!-- Generator: Sketch 54.1 (76490) - https://sketchapp.com -->
    <title>yen-sign-solid</title>
    <desc>Created with Sketch.</desc>
    <g id="Chapter_4" stroke="none" stroke-width="1" fill="none" fill-rule="evenodd">
        <g id="グッドイメージ" transform="translate(-22.000000, -250.000000)" fill-rule="nonzero">
            <g id="Group-3" transform="translate(1.000000, 162.000000)">
                <g id="Group-2" transform="translate(14.000000, 12.000000)">
                    <g id="detail" transform="translate(0.000000, 50.000000)">
                        <g id="yen-sign-solid" transform="translate(7.000000, 26.000000)">
                            <path d="M7.71857423,1.58603289e-16 L6.19310874,1.58603289e-16 C6.08564869,1.58603289e-16 5.98753299,0.0580357143 5.94081123,0.149553571 L4.64661845,2.67633929 C4.30788569,3.45089286 4.01353859,4.28125 4.01353859,4.28125 L3.98316945,4.28125 C3.98316945,4.28125 3.68882236,3.45089286 3.35008959,2.67633929 L2.05589682,0.149553571 C2.00917506,0.0580357143 1.91105936,1.58603289e-16 1.80359931,1.58603289e-16 L0.280469905,1.58603289e-16 C0.0678858936,1.58603289e-16 -0.0652711247,0.216517857 0.032844573,0.392857143 L1.90405109,3.75 L0.542111766,3.75 C0.387929955,3.75 0.261781201,3.87053571 0.261781201,4.01785714 L0.261781201,4.73214286 C0.261781201,4.87946429 0.387929955,5 0.542111766,5 L2.60254142,5 L3.06508685,5.83035714 L3.06508685,6.42857143 L0.542111766,6.42857143 C0.387929955,6.42857143 0.261781201,6.54910714 0.261781201,6.69642857 L0.261781201,7.41071429 C0.261781201,7.55803571 0.387929955,7.67857143 0.542111766,7.67857143 L3.06508685,7.67857143 L3.06508685,9.73214286 C3.06508685,9.87946429 3.1912356,10 3.34541741,10 L4.65362672,10 C4.80780853,10 4.93395728,9.87946429 4.93395728,9.73214286 L4.93395728,7.67857143 L7.45693237,7.67857143 C7.61111418,7.67857143 7.73726293,7.55803571 7.73726293,7.41071429 L7.73726293,6.69642857 C7.73726293,6.54910714 7.61111418,6.42857143 7.45693237,6.42857143 L4.93395728,6.42857143 L4.93395728,5.83035714 L5.39650271,5 L7.45693237,5 C7.61111418,5 7.73726293,4.87946429 7.73726293,4.73214286 L7.73726293,4.01785714 C7.73726293,3.87053571 7.61111418,3.75 7.45693237,3.75 L6.09499304,3.75 L7.96619956,0.392857143 C8.06665135,0.216517857 7.93115824,0 7.71857423,1.58603289e-16 Z" id="Path" fill="#000000"></path>
                            <path d="M1.444,11.72 L1.444,12.636 C1.444,13.632 1.452,13.812 1.452,13.836 C1.452,13.876 1.448,13.88 1.408,13.88 L1.12,13.88 C1.084,13.88 1.08,13.876 1.08,13.836 L1.08,13.66 L0.712,13.66 L0.712,13.976 C0.712,14.016 0.708,14.02 0.672,14.02 L0.376,14.02 C0.336,14.02 0.332,14.016 0.332,13.976 C0.332,13.952 0.34,13.748 0.34,12.744 L0.34,11.872 C0.34,11.148 0.332,10.936 0.332,10.912 C0.332,10.872 0.336,10.868 0.376,10.868 C0.404,10.868 0.48,10.876 0.72,10.876 L1.064,10.876 C1.304,10.876 1.38,10.868 1.408,10.868 C1.448,10.868 1.452,10.872 1.452,10.912 C1.452,10.936 1.444,11.132 1.444,11.72 Z M0.712,13.296 L1.08,13.296 L1.08,12.432 L0.712,12.432 L0.712,13.296 Z M1.08,11.24 L0.712,11.24 L0.712,12.068 L1.08,12.068 L1.08,11.24 Z M3.26,12.232 L2.144,12.232 C1.764,12.232 1.632,12.24 1.608,12.24 C1.564,12.24 1.56,12.236 1.56,12.192 L1.56,11.916 C1.56,11.876 1.564,11.872 1.608,11.872 C1.632,11.872 1.764,11.88 2.144,11.88 L2.432,11.88 L2.432,11.468 L2.244,11.468 C1.888,11.468 1.764,11.476 1.74,11.476 C1.696,11.476 1.692,11.472 1.692,11.432 L1.692,11.152 C1.692,11.108 1.696,11.104 1.74,11.104 C1.764,11.104 1.888,11.112 2.244,11.112 L2.432,11.112 C2.428,10.904 2.424,10.8 2.404,10.66 C2.56,10.664 2.668,10.672 2.816,10.688 C2.856,10.692 2.88,10.708 2.88,10.728 C2.88,10.76 2.868,10.78 2.856,10.812 C2.836,10.856 2.836,10.932 2.836,11.112 L3.104,11.112 C3.468,11.112 3.588,11.104 3.612,11.104 C3.652,11.104 3.656,11.108 3.656,11.152 L3.656,11.432 C3.656,11.472 3.652,11.476 3.612,11.476 C3.588,11.476 3.468,11.468 3.104,11.468 L2.836,11.468 L2.836,11.88 L3.26,11.88 C3.64,11.88 3.772,11.872 3.796,11.872 C3.84,11.872 3.844,11.876 3.844,11.916 L3.844,12.192 C3.844,12.236 3.84,12.24 3.796,12.24 C3.772,12.24 3.64,12.232 3.26,12.232 Z M2.948,12.984 L2.16,12.984 C1.78,12.984 1.652,12.992 1.628,12.992 C1.584,12.992 1.58,12.988 1.58,12.948 L1.58,12.668 C1.58,12.628 1.584,12.624 1.628,12.624 C1.652,12.624 1.78,12.632 2.16,12.632 L2.948,12.632 C2.944,12.468 2.932,12.372 2.92,12.28 C3.072,12.288 3.216,12.3 3.324,12.316 C3.368,12.324 3.392,12.34 3.392,12.36 C3.392,12.388 3.384,12.404 3.372,12.428 C3.356,12.46 3.352,12.508 3.352,12.632 C3.624,12.632 3.732,12.624 3.752,12.624 C3.796,12.624 3.8,12.628 3.8,12.668 L3.8,12.948 C3.8,12.988 3.796,12.992 3.752,12.992 C3.732,12.992 3.624,12.988 3.352,12.984 L3.352,13.38 C3.352,13.564 3.356,13.736 3.356,13.872 C3.356,14.02 3.328,14.132 3.216,14.212 C3.128,14.272 2.996,14.3 2.696,14.3 C2.576,14.3 2.572,14.3 2.544,14.18 C2.516,14.06 2.476,13.968 2.424,13.888 C2.564,13.9 2.684,13.904 2.816,13.904 C2.912,13.904 2.948,13.872 2.948,13.78 L2.948,12.984 Z M1.868,13.236 L2.092,13.096 C2.132,13.072 2.144,13.072 2.176,13.1 C2.312,13.24 2.432,13.392 2.544,13.56 C2.568,13.596 2.564,13.608 2.524,13.636 L2.28,13.804 C2.256,13.82 2.244,13.828 2.232,13.828 C2.22,13.828 2.212,13.82 2.2,13.8 C2.08,13.596 1.964,13.444 1.848,13.308 C1.82,13.276 1.82,13.264 1.868,13.236 Z M6.256,14.292 L5.952,14.292 C5.912,14.292 5.908,14.288 5.908,14.248 C5.908,14.224 5.916,14.112 5.916,13.52 L5.916,13.164 C5.916,12.808 5.908,12.688 5.908,12.664 C5.908,12.628 5.912,12.624 5.952,12.624 C5.98,12.624 6.092,12.632 6.42,12.632 L7.068,12.632 C7.396,12.632 7.508,12.624 7.532,12.624 C7.572,12.624 7.576,12.628 7.576,12.664 C7.576,12.688 7.568,12.808 7.568,13.096 L7.568,13.5 C7.568,14.084 7.576,14.196 7.576,14.22 C7.576,14.256 7.572,14.26 7.532,14.26 L7.224,14.26 C7.184,14.26 7.18,14.256 7.18,14.22 L7.18,14.048 L6.3,14.048 L6.3,14.248 C6.3,14.288 6.296,14.292 6.256,14.292 Z M6.3,12.984 L6.3,13.696 L7.18,13.696 L7.18,12.984 L6.3,12.984 Z M5.304,12.008 L5.468,11.94 C5.52,11.92 5.524,11.924 5.544,11.964 C5.66,12.204 5.736,12.444 5.804,12.684 C5.816,12.728 5.804,12.74 5.752,12.76 L5.564,12.836 C5.516,12.856 5.504,12.848 5.496,12.804 L5.452,12.624 L5.188,12.648 L5.188,13.744 C5.188,14.112 5.196,14.248 5.196,14.268 C5.196,14.308 5.192,14.312 5.152,14.312 L4.848,14.312 C4.808,14.312 4.804,14.308 4.804,14.268 C4.804,14.244 4.812,14.112 4.812,13.744 L4.812,12.684 L4.48,12.704 C4.412,12.708 4.364,12.72 4.332,12.736 C4.312,12.744 4.296,12.756 4.272,12.756 C4.244,12.756 4.236,12.728 4.228,12.688 C4.208,12.592 4.188,12.48 4.172,12.352 C4.276,12.36 4.376,12.364 4.468,12.364 C4.548,12.26 4.628,12.152 4.704,12.044 C4.548,11.848 4.372,11.66 4.188,11.48 C4.152,11.452 4.164,11.44 4.192,11.396 L4.324,11.188 C4.34,11.164 4.352,11.152 4.364,11.152 C4.372,11.152 4.384,11.16 4.4,11.176 L4.504,11.28 C4.588,11.148 4.656,11.02 4.72,10.872 C4.772,10.764 4.792,10.7 4.812,10.624 C4.92,10.664 5.06,10.72 5.16,10.772 C5.2,10.796 5.212,10.812 5.212,10.836 C5.212,10.856 5.196,10.872 5.176,10.888 C5.144,10.912 5.128,10.932 5.1,10.984 C4.976,11.204 4.872,11.364 4.748,11.54 L4.916,11.728 C5.008,11.584 5.096,11.436 5.18,11.288 C5.228,11.2 5.268,11.104 5.3,11.016 C5.424,11.072 5.544,11.132 5.636,11.188 C5.672,11.208 5.684,11.224 5.684,11.248 C5.684,11.276 5.672,11.292 5.64,11.308 C5.6,11.332 5.568,11.376 5.508,11.472 C5.3,11.796 5.084,12.108 4.892,12.348 C5.044,12.34 5.2,12.332 5.356,12.32 C5.328,12.236 5.296,12.16 5.26,12.08 C5.244,12.04 5.248,12.032 5.304,12.008 Z M6.936,12.26 L6.524,12.26 C6.264,12.26 6.188,12.268 6.164,12.268 C6.124,12.268 6.12,12.264 6.12,12.22 L6.12,11.924 C6.052,11.992 5.98,12.056 5.908,12.12 C5.868,12.156 5.844,12.176 5.824,12.176 C5.804,12.176 5.784,12.148 5.752,12.088 C5.7,11.992 5.652,11.932 5.592,11.876 C5.972,11.6 6.24,11.216 6.412,10.888 C6.452,10.804 6.48,10.732 6.492,10.644 C6.624,10.656 6.768,10.668 6.896,10.684 C6.932,10.692 6.948,10.712 6.948,10.732 C6.948,10.752 6.94,10.772 6.912,10.792 L6.88,10.82 C7.128,11.236 7.484,11.552 7.9,11.784 C7.844,11.848 7.788,11.936 7.74,12.056 C7.716,12.12 7.7,12.148 7.676,12.148 C7.656,12.148 7.628,12.132 7.588,12.1 C7.5,12.036 7.416,11.972 7.34,11.904 L7.34,12.22 C7.34,12.264 7.336,12.268 7.296,12.268 C7.268,12.268 7.188,12.26 6.936,12.26 Z M7.296,11.88 L7.312,11.88 C7.052,11.656 6.848,11.428 6.692,11.168 C6.548,11.424 6.372,11.664 6.164,11.88 C6.188,11.88 6.264,11.888 6.524,11.888 L6.936,11.888 C7.188,11.888 7.268,11.88 7.296,11.88 Z M4.16,13.896 C4.256,13.64 4.304,13.4 4.328,13.136 C4.336,13.06 4.34,13 4.332,12.912 C4.432,12.924 4.58,12.952 4.64,12.968 C4.688,12.98 4.708,12.996 4.708,13.016 C4.708,13.036 4.7,13.052 4.688,13.072 C4.676,13.092 4.672,13.14 4.664,13.204 C4.64,13.44 4.584,13.732 4.516,13.956 C4.496,14.016 4.488,14.044 4.464,14.044 C4.444,14.044 4.416,14.028 4.368,14 C4.312,13.964 4.212,13.916 4.16,13.896 Z M5.34,12.964 L5.524,12.9 C5.572,12.884 5.576,12.892 5.592,12.936 C5.66,13.144 5.732,13.436 5.764,13.668 C5.768,13.712 5.764,13.724 5.712,13.744 L5.512,13.824 C5.452,13.848 5.444,13.84 5.44,13.8 C5.416,13.544 5.356,13.24 5.292,13.028 C5.28,12.984 5.292,12.98 5.34,12.964 Z" id="時給" fill="#333333"></path>
                        </g>
                    </g>
                </g>
            </g>
        </g>
    </g>
</svg>