<svg id="baseline-assignment_ind-24px" xmlns="http://www.w3.org/2000/svg" viewBox="0 0 32 32">
  <defs>
    <style>
      .cls-1 {
        fill: none;
      }

      .cls-2 {
        fill: #aaa;
      }
    </style>
  </defs>
  <path id="パス_4" data-name="パス 4" class="cls-1" d="M0,0H32V32H0Z"/>
  <path id="パス_5" data-name="パス 5" class="cls-2" d="M26.111,3.8H20.073a4.363,4.363,0,0,0-8.147,0H5.889A2.854,2.854,0,0,0,3,6.6V26.2A2.854,2.854,0,0,0,5.889,29H26.111A2.854,2.854,0,0,0,29,26.2V6.6A2.854,2.854,0,0,0,26.111,3.8ZM16,3.8a1.427,1.427,0,0,1,1.444,1.4,1.445,1.445,0,0,1-2.889,0A1.427,1.427,0,0,1,16,3.8Zm0,5.6a4.2,4.2,0,1,1-4.333,4.2A4.263,4.263,0,0,1,16,9.4Zm8.667,16.8H7.333V24.24c0-2.8,5.778-4.34,8.667-4.34s8.667,1.54,8.667,4.34Z" transform="translate(0)"/>
</svg>
